<?xml version="1.0" encoding="UTF-8" standalone="no"?>
<!DOCTYPE svg PUBLIC "-//W3C//DTD SVG 1.1//EN" "http://www.w3.org/Graphics/SVG/1.1/DTD/svg11.dtd">
<svg width="100%" height="100%" viewBox="0 0 4000 3000" version="1.1" xmlns="http://www.w3.org/2000/svg" xmlns:xlink="http://www.w3.org/1999/xlink" xml:space="preserve" xmlns:serif="http://www.serif.com/" style="fill-rule:evenodd;clip-rule:evenodd;stroke-linejoin:round;stroke-miterlimit:2;">
    <rect id="Coding-For-Kids-3" serif:id="Coding For Kids 3" x="0" y="0" width="4000" height="3000" style="fill:none;"/>
    <g id="Coding-For-Kids-31" serif:id="Coding For Kids 3">
        <rect x="0" y="0" width="4000" height="3000" style="fill:white;"/>
        <g id="Back">
            <path d="M753.311,2566.68l2574.21,0c221.903,-173.109 164.178,-591.493 -0,-693.964c-197.913,-123.525 -252.412,-306.146 -218.844,-458.512c62.486,-283.63 -71.896,-522.736 -398.399,-522.284c-280.396,0.388 -318.862,-219.197 -432.726,-335.886c-110.218,-112.954 -447.468,-229.451 -637.195,53.014c-107.274,159.709 -4.549,380.396 -321.242,449.332c-271.371,59.071 -378.787,281.16 -363.696,415.866c15,133.892 153.437,316.001 -95.607,479.704c-252.785,166.161 -244.412,478.861 -106.503,612.73Z" style="fill:rgb(229,237,252);"/>
            <path d="M3583.53,2577.57c-0,-6.899 -5.601,-12.5 -12.5,-12.5l-3142.05,0c-6.899,0 -12.5,5.601 -12.5,12.5c0,6.899 5.601,12.5 12.5,12.5l3142.05,0c6.899,0 12.5,-5.601 12.5,-12.5Z" style="fill:rgb(137,150,219);"/>
        </g>
        <g id="Front">
            <g>
                <path d="M1824.91,2273.73l-72.92,292.888l192.261,0l15.21,-275.422l-134.551,-17.466Z" style="fill:rgb(255,196,205);"/>
                <path d="M2124.37,1752.94l1.1,160.552c79.902,44.954 159.804,26.857 239.706,-0l0,-227.752l-240.806,67.2Z" style="fill:rgb(255,196,205);"/>
                <path d="M2365.18,1755.84l0,-70.104l-240.806,67.2l0.779,113.65c43.902,-3.617 179.58,-21.846 240.027,-110.746Z" style="fill:rgb(216,115,138);"/>
                <path d="M2124.37,1852.97c0,-0 29.897,73.268 67.067,74.823c37.169,1.556 173.739,-85.551 173.739,-85.551c0,-0 224.012,22.494 276.893,98.591c52.881,76.097 111.193,308.453 96.36,383.583c-81.149,10.737 -160.009,10.758 -241.158,-0l0,242.205l-553.024,0l-0,-229.662c-0,-0 -137.392,-2.116 -154.567,-43.337c-15.478,-37.146 92.08,-334.232 138.469,-365.829c66.037,-44.979 196.221,-74.823 196.221,-74.823Z" style="fill:url(#_Linear1);"/>
                <path d="M2098.24,1858.52c-0,0 15.359,42.956 38.669,70.729c11.961,14.251 26.202,24.379 41.023,26.44c17.446,2.426 44.611,-6.364 73.627,-21.419c60.822,-31.559 132.349,-88.277 132.349,-88.277c6.484,-5.146 7.571,-14.59 2.424,-21.074c-5.147,-6.485 -14.59,-7.571 -21.074,-2.424c-0,-0 -68.895,54.73 -127.516,85.146c-22.181,11.509 -42.341,20.189 -55.678,18.334c-5.015,-0.698 -9.609,-3.722 -14.03,-7.582c-5.876,-5.131 -11.234,-11.863 -16.049,-19.003c-15.662,-23.224 -25.472,-50.903 -25.472,-50.903c-2.769,-7.802 -11.351,-11.888 -19.153,-9.12c-7.802,2.769 -11.889,11.351 -9.12,19.153Z" style="fill:white;"/>
                <path d="M2506.87,2326.35c-5.174,-0.6 -9.595,240.271 -9.595,240.271l-391.152,0l-43.5,-177.633c131.068,-82.46 402.752,-64.447 402.752,-64.447l-0,-247.599l41.495,249.408Z" style="fill:url(#_Linear2);"/>
                <path d="M2497.46,2324.54l0,13.448c0,-0 -388.889,-18.164 -436.181,79.172c-14.422,29.683 -14.874,62.935 21.428,75.942c25.877,9.272 74.04,-4.909 93.793,-11.35c-0,0 -27.722,31.299 -0,40.241c45.267,14.603 51.109,2.614 102.219,0c25.844,-1.322 341.031,25.061 391.062,0c81.532,-40.839 62.698,-195.503 62.698,-195.503c-99.098,6.843 -166.152,7.522 -235.019,-1.95Z" style="fill:rgb(255,196,205);"/>
                <path d="M2497.46,2328.9c36.143,13.208 149.771,51.433 236.798,44.443c0.617,-27.176 -1.779,-46.854 -1.779,-46.854c-99.098,6.843 -166.152,7.522 -235.019,-1.95l0,4.361Z" style="fill:rgb(238,156,175);"/>
                <g>
                    <path d="M1900.2,1419.35c0,-0 -21.049,31.633 5.418,80.649c23.626,43.756 0.698,64.848 46.715,88.871l20.259,-169.52l-72.392,-0Z" style="fill:rgb(89,46,19);"/>
                    <path d="M2426.36,1632.5c-0,-0 -28.98,61.633 -62.025,84.248l0,-70.674l62.025,-13.574Z" style="fill:rgb(123,66,23);"/>
                    <path d="M2386.91,1640.51c-0.677,-7.017 2.333,-15.325 7.595,-20.896c5.041,-5.338 12.26,-8.091 20.366,-4.276c1.248,0.587 2.739,0.05 3.326,-1.198c0.588,-1.249 0.051,-2.739 -1.197,-3.327c-10.39,-4.889 -19.668,-1.474 -26.13,5.367c-6.241,6.608 -9.74,16.488 -8.936,24.811c0.132,1.373 1.355,2.38 2.728,2.248c1.374,-0.133 2.381,-1.356 2.248,-2.729Z"/>
                    <path d="M1971.07,1419.35c-41.81,76.524 -55.779,319.651 59.229,374.953c93.948,45.177 241.342,-1.737 282.892,-38.562c62.495,-55.389 56.642,-102.713 56.642,-102.713c30.954,27.232 87.694,-19.071 67.489,-70.23c-17.02,-43.092 -87.231,-34.985 -88.196,28.233l-15.391,-191.681l-362.665,-0Z" style="fill:rgb(255,196,205);"/>
                    <path d="M1946.82,1500c59.699,-0.006 64.09,-5.276 97.715,-14.005c46.219,-12 59.389,-18.33 84.72,-7.22c25.332,11.111 71.937,17.886 133.266,7.22c0,-0 -0.889,46.663 13.333,69.773c14.221,23.109 17.384,43.456 14.221,76.784c-6.784,71.479 44.162,63.363 4.012,136.618c7.696,-4.506 14.153,-9.038 19.106,-13.428c62.495,-55.389 56.642,-102.713 56.642,-102.713c30.954,27.232 87.694,-19.071 67.489,-70.23c-17.02,-43.092 -87.231,-34.985 -88.196,28.233l-15.391,-191.681l-362.665,-0c-7.137,13.062 -19.242,59.643 -24.252,80.649Z" style="fill:rgb(243,151,173);"/>
                    <path d="M2384.76,1623.31c0.009,-13.786 14.719,-25.423 29.264,-17.516c1.939,1.055 4.37,0.336 5.424,-1.604c1.055,-1.939 0.336,-4.37 -1.603,-5.424c-20.409,-11.096 -41.073,5.196 -41.085,24.538c-0.002,2.208 1.79,4.002 3.997,4.003c2.208,0.001 4.001,-1.79 4.003,-3.997Z" style="fill:rgb(211,84,114);"/>
                    <path d="M2350.02,1610.39c-0,-0 -2.356,53.755 -23.998,40.544c-21.642,-13.21 -24.199,-75.39 -27.214,-98.316c-3.015,-22.926 -26.122,-20.735 -23.439,-81.26c-0,0 -80.291,11.094 -105.163,0c-24.872,-11.093 -97.235,-16.384 -118.338,-5.29c-21.104,11.093 -116.063,18.487 -145.677,-0c-39.583,-24.712 -47.525,-85.751 -10.005,-117.086c21.65,-18.082 30.988,-42.256 35.768,-61.942c10.282,-42.339 38.908,-60.886 75.56,-63.043c36.69,-2.16 107.366,-28.415 121.744,-42.37c33.042,-32.067 90.739,-39.917 136.111,24.734c23.986,34.179 99.631,-33.557 122.881,68.897c0,0 54.989,17.128 70.063,65.199c15.074,48.071 -16.67,90.957 -0,130.901c21.796,52.229 -17.763,121.849 -17.763,121.849c-9.971,-30.037 -25.874,-36.986 -42.499,-37.044c-18.066,-0.063 -45.973,10.813 -48.031,54.227Z" style="fill:rgb(123,66,23);"/>
                    <path d="M1873.96,1384.85c27.203,53.496 62.091,73.172 126.043,51.308c67.612,-23.115 116.555,-30.05 168.375,-10.979c51.82,19.07 127.901,10.979 127.901,10.979c2.249,17.096 8.015,51.201 39.941,69.391c22.417,12.772 30.603,34.463 50.694,32.709c39.649,-3.461 64.291,-24.317 77.607,-40.332c3.739,46.525 -23.969,95.287 -23.969,95.287c-9.971,-30.037 -25.874,-36.986 -42.499,-37.044c-18.066,-0.063 -45.973,10.813 -48.031,54.227c-0,-0 -2.356,53.755 -23.998,40.544c-21.642,-13.21 -24.199,-75.39 -27.214,-98.316c-3.015,-22.926 -26.122,-20.735 -23.439,-81.26c-0,0 -80.291,11.094 -105.163,0c-24.872,-11.093 -97.235,-16.384 -118.338,-5.29c-21.104,11.093 -116.063,18.487 -145.677,-0c-27.272,-17.027 -39.524,-51.298 -32.233,-81.224Z" style="fill:rgb(107,55,20);"/>
                    <path d="M2236.12,1548.86c-0,0 -25.617,-38.108 -94.183,-16.372c-3.683,1.168 -5.725,5.106 -4.558,8.788c1.168,3.683 5.106,5.725 8.788,4.558c56.864,-18.027 78.502,11.08 78.502,11.08c2.222,3.16 6.592,3.921 9.752,1.699c3.16,-2.223 3.922,-6.593 1.699,-9.753Z" style="fill:rgb(193,103,7);"/>
                    <path d="M1986.79,1556.92c-0,0 21.638,-29.107 78.501,-11.08c3.683,1.167 7.621,-0.875 8.788,-4.558c1.168,-3.682 -0.875,-7.62 -4.557,-8.788c-68.566,-21.736 -94.184,16.372 -94.184,16.372c-2.222,3.16 -1.461,7.53 1.699,9.753c3.16,2.222 7.53,1.461 9.753,-1.699Z" style="fill:rgb(193,103,7);"/>
                    <path d="M2001.87,1593.58c3.937,-6.196 11.06,-9.489 18.394,-9.857c11.167,-0.559 22.977,5.814 25.646,20.038c0.51,2.712 3.125,4.501 5.837,3.992c2.712,-0.509 4.501,-3.125 3.992,-5.837c-3.749,-19.972 -20.296,-28.965 -35.975,-28.18c-10.563,0.529 -20.665,5.558 -26.335,14.482c-1.479,2.329 -0.79,5.422 1.539,6.901c2.33,1.48 5.422,0.791 6.902,-1.539Z" style="fill:rgb(33,33,103);"/>
                    <path d="M2212.04,1589.27c-5.67,-8.924 -15.772,-13.953 -26.335,-14.482c-15.679,-0.785 -32.226,8.208 -35.975,28.18c-0.509,2.712 1.28,5.328 3.992,5.837c2.712,0.509 5.328,-1.28 5.837,-3.992c2.669,-14.225 14.479,-20.597 25.646,-20.038c7.334,0.367 14.457,3.661 18.394,9.857c1.48,2.33 4.572,3.019 6.902,1.539c2.329,-1.479 3.019,-4.572 1.539,-6.901Z" style="fill:rgb(33,33,103);"/>
                    <path d="M2100.37,1605.57c-0,-0 -11.592,35.615 -17.254,60.446c-1.758,7.709 -2.939,14.417 -3.102,18.82c-0.093,2.499 0.172,4.428 0.637,5.673c2.351,6.292 7.52,9.692 13.002,11.361c7.351,2.239 15.122,1.243 15.122,1.243c2.189,-0.282 3.739,-2.288 3.457,-4.478c-0.282,-2.19 -2.288,-3.739 -4.478,-3.457c0,0 -6.049,0.781 -11.771,-0.961c-3.235,-0.984 -6.451,-2.796 -7.838,-6.508c-0.319,-0.855 -0.198,-2.35 -0.022,-4.312c0.359,-4.01 1.392,-9.462 2.792,-15.602c5.598,-24.545 17.062,-59.749 17.062,-59.749c0.683,-2.099 -0.466,-4.358 -2.566,-5.042c-2.099,-0.683 -4.358,0.466 -5.041,2.566Z" style="fill:rgb(224,105,133);"/>
                    <path d="M2133.75,1753.64c2.443,2.791 6.562,4.708 11.392,5.143c10.176,0.917 23.503,-4.603 27.126,-19.809c0.512,-2.147 -0.816,-4.306 -2.964,-4.818c-2.147,-0.512 -4.306,0.816 -4.818,2.964c-2.14,8.98 -9.159,13.096 -15.542,13.686c-3.774,0.348 -7.377,-0.381 -9.174,-2.435c-1.454,-1.661 -3.984,-1.829 -5.645,-0.375c-1.661,1.454 -1.829,3.983 -0.375,5.644Z" style="fill:rgb(238,36,36);"/>
                </g>
            </g>
            <g>
                <rect x="2084.07" y="2529.68" width="514.131" height="36.945" style="fill:rgb(21,25,95);"/>
                <path d="M2050.3,2020.88c-2.795,-15.853 -17.935,-28.723 -33.788,-28.723l-815.396,-0c-15.853,-0 -26.454,12.87 -23.658,28.723l91.164,517.017c2.795,15.853 17.935,28.723 33.787,28.723l815.396,0c15.853,0 26.454,-12.87 23.659,-28.723l-91.164,-517.017Z" style="fill:url(#_Linear3);"/>
                <path d="M1654.79,2211.91c-14.107,-11.991 -31.559,-18.728 -48.518,-18.728c-35.291,-0 -58.891,28.652 -52.668,63.943c6.223,35.292 39.927,63.944 75.218,63.944c35.315,-0 58.896,-28.629 52.669,-63.944l-63.944,0l37.243,-45.215Z" style="fill:rgb(166,169,235);"/>
            </g>
            <g>
                <path d="M1718.74,867.07c0,-16.256 -13.198,-29.454 -29.454,-29.454l-919.593,0c-16.256,0 -29.454,13.198 -29.454,29.454l0,677.434c0,16.256 13.198,29.454 29.454,29.454l919.593,-0c16.256,-0 29.454,-13.198 29.454,-29.454l0,-677.434Z" style="fill:rgb(28,25,113);"/>
                <path d="M1295,1072.39c-0,-9.611 -7.803,-17.414 -17.414,-17.414l-418.493,0c-9.611,0 -17.414,7.803 -17.414,17.414l-0,52.242c-0,9.611 7.803,17.414 17.414,17.414l418.493,-0c9.611,-0 17.414,-7.803 17.414,-17.414l-0,-52.242Z" style="fill:rgb(245,210,112);"/>
                <path d="M1617.3,1214.14c-0,-4.612 -3.744,-8.355 -8.355,-8.355l-758.918,-0c-4.611,-0 -8.355,3.743 -8.355,8.355l-0,25.064c-0,4.611 3.744,8.355 8.355,8.355l758.918,-0c4.611,-0 8.355,-3.744 8.355,-8.355l-0,-25.064Z" style="fill:rgb(76,171,255);"/>
                <path d="M1269.96,1298.77c0,-4.612 -3.743,-8.355 -8.354,-8.355l-411.577,-0c-4.611,-0 -8.355,3.743 -8.355,8.355l-0,25.064c-0,4.611 3.744,8.355 8.355,8.355l411.577,-0c4.611,-0 8.354,-3.744 8.354,-8.355l0,-25.064Z" style="fill:rgb(131,229,205);"/>
                <path d="M1617.3,1298.77c-0,-4.612 -3.744,-8.355 -8.355,-8.355l-305.598,-0c-4.611,-0 -8.354,3.743 -8.354,8.355l-0,25.064c-0,4.611 3.743,8.355 8.354,8.355l305.598,-0c4.611,-0 8.355,-3.744 8.355,-8.355l-0,-25.064Z" style="fill:rgb(242,114,190);"/>
                <path d="M1163.98,1383.39c-0,-4.611 -3.744,-8.354 -8.355,-8.354l-305.597,-0c-4.611,-0 -8.355,3.743 -8.355,8.354l-0,25.065c-0,4.611 3.744,8.355 8.355,8.355l305.597,-0c4.611,-0 8.355,-3.744 8.355,-8.355l-0,-25.065Z" style="fill:rgb(245,210,112);"/>
                <path d="M740.237,960.19l978.501,-0l0,-93.12c0,-16.256 -13.198,-29.454 -29.454,-29.454l-919.593,0c-16.256,0 -29.454,13.198 -29.454,29.454l0,93.12Z" style="fill:rgb(56,52,161);"/>
                <path d="M933.205,877.886c11.6,-0 21.017,9.417 21.017,21.017c0,11.6 -9.417,21.017 -21.017,21.017c-11.6,0 -21.017,-9.417 -21.017,-21.017c-0,-11.6 9.417,-21.017 21.017,-21.017Zm101.595,-0c11.6,-0 21.017,9.417 21.017,21.017c0,11.6 -9.417,21.017 -21.017,21.017c-11.6,0 -21.017,-9.417 -21.017,-21.017c-0,-11.6 9.417,-21.017 21.017,-21.017Zm-203.19,-0c11.6,-0 21.017,9.417 21.017,21.017c0,11.6 -9.417,21.017 -21.017,21.017c-11.6,0 -21.017,-9.417 -21.017,-21.017c-0,-11.6 9.417,-21.017 21.017,-21.017Z" style="fill:white;"/>
            </g>
            <g>
                <path d="M1146.33,1776.15c-0,-13.187 -10.706,-23.892 -23.892,-23.892l-483.32,-0c-13.187,-0 -23.893,10.705 -23.893,23.892l0,350.418c0,13.186 10.706,23.892 23.893,23.892l483.32,0c13.186,0 23.892,-10.706 23.892,-23.892l-0,-350.418Z" style="fill:url(#_Linear4);"/>
                <path d="M615.222,1835.09l531.105,-0l-0,-58.935c-0,-13.187 -10.706,-23.892 -23.892,-23.892l-483.32,-0c-13.187,-0 -23.893,10.705 -23.893,23.892l0,58.935Z" style="fill:rgb(56,52,161);"/>
                <path d="M721.522,1782.59c6.115,-0 11.079,4.964 11.079,11.079c0,6.115 -4.964,11.08 -11.079,11.08c-6.115,-0 -11.08,-4.965 -11.08,-11.08c0,-6.115 4.965,-11.079 11.08,-11.079Zm53.556,-0c6.115,-0 11.08,4.964 11.08,11.079c-0,6.115 -4.965,11.08 -11.08,11.08c-6.114,-0 -11.079,-4.965 -11.079,-11.08c-0,-6.115 4.965,-11.079 11.079,-11.079Zm-107.113,-0c6.115,-0 11.079,4.964 11.079,11.079c0,6.115 -4.964,11.08 -11.079,11.08c-6.115,-0 -11.08,-4.965 -11.08,-11.08c0,-6.115 4.965,-11.079 11.08,-11.079Z" style="fill:white;"/>
                <path d="M837.596,2070.33l29.846,-0l58.277,-196.078l-29.844,-0l-58.279,196.078Zm-3.731,-147.553l-87.063,37.883l-0,32.055l87.063,37.884l-0,-30.39l-56.335,-23.521l56.335,-23.521l-0,-30.39Zm93.82,-0l-0,30.39l56.334,23.521l-56.334,23.521l-0,30.39l87.063,-37.884l-0,-32.055l-87.063,-37.883Z" style="fill:rgb(28,25,113);fill-rule:nonzero;"/>
            </g>
            <path d="M2189.01,501.642c-0,-19.823 -16.093,-35.916 -35.916,-35.916l-306.196,0c-19.823,0 -35.916,16.093 -35.916,35.916l0,227.466c0,19.822 16.093,35.915 35.916,35.915l306.196,0c19.823,0 35.916,-16.093 35.916,-35.915l-0,-227.466Z" style="fill:url(#_Linear5);"/>
            <path d="M1933.54,636.217c1.86,3.501 3.993,6.072 6.4,7.713c2.407,1.641 4.76,2.462 7.057,2.462c1.86,-0 3.529,-0.247 5.006,-0.739c1.477,-0.492 2.707,-1.395 3.692,-2.708c0.985,-1.313 1.751,-3.063 2.298,-5.251c0.547,-2.188 0.82,-4.978 0.82,-8.37l0,-67.285l28.227,-0l0,69.583c0,5.361 -0.738,10.393 -2.215,15.098c-1.477,4.704 -3.693,8.834 -6.647,12.39c-2.954,3.556 -6.701,6.373 -11.241,8.452c-4.541,2.079 -9.874,3.118 -16.001,3.118c-8.753,-0 -16.028,-1.641 -21.827,-4.923c-5.799,-3.283 -10.667,-8.37 -14.606,-15.263l19.037,-14.277Zm85.994,-0.164c3.829,3.063 7.96,5.552 12.391,7.467c4.431,1.914 8.615,2.872 12.554,2.872c4.267,-0 7.358,-0.657 9.272,-1.97c1.915,-1.313 2.872,-3.173 2.872,-5.58c0,-1.312 -0.328,-2.406 -0.984,-3.282c-0.657,-0.875 -1.614,-1.696 -2.872,-2.461c-1.259,-0.766 -2.763,-1.505 -4.513,-2.216c-1.751,-0.711 -3.775,-1.504 -6.072,-2.38l-13.293,-5.579c-2.845,-1.094 -5.58,-2.544 -8.206,-4.349c-2.626,-1.805 -4.923,-3.939 -6.893,-6.401c-1.969,-2.461 -3.528,-5.278 -4.677,-8.451c-1.149,-3.173 -1.723,-6.674 -1.723,-10.503c-0,-4.595 0.985,-8.89 2.954,-12.883c1.969,-3.993 4.705,-7.494 8.206,-10.503c3.501,-3.009 7.685,-5.388 12.554,-7.139c4.869,-1.751 10.202,-2.626 16.001,-2.626c6.127,0 12.336,1.149 18.626,3.447c6.291,2.297 11.898,5.908 16.822,10.831l-14.114,17.724c-3.61,-2.517 -7.084,-4.431 -10.421,-5.744c-3.337,-1.313 -6.975,-1.969 -10.913,-1.969c-3.501,-0 -6.236,0.601 -8.206,1.805c-1.969,1.203 -2.954,3.009 -2.954,5.416c0,2.516 1.395,4.458 4.185,5.825c2.79,1.368 6.647,2.982 11.57,4.842l12.965,5.087c6.674,2.626 11.816,6.291 15.426,10.996c3.611,4.704 5.416,10.776 5.416,18.216c-0,4.486 -0.93,8.807 -2.79,12.965c-1.86,4.157 -4.568,7.795 -8.124,10.913c-3.555,3.118 -7.904,5.607 -13.046,7.467c-5.143,1.86 -11.051,2.79 -17.724,2.79c-6.784,-0 -13.758,-1.231 -20.925,-3.693c-7.166,-2.461 -13.648,-6.318 -19.447,-11.569l16.083,-19.365Z" style="fill:white;fill-rule:nonzero;"/>
            <path d="M2825.82,788.423c0,-12.915 -10.485,-23.4 -23.399,-23.4l-338.187,0c-12.915,0 -23.4,10.485 -23.4,23.4l0,187.198c0,12.915 10.485,23.4 23.4,23.4l338.187,-0c12.914,-0 23.399,-10.485 23.399,-23.4l0,-187.198Z" style="fill:url(#_Linear6);"/>
            <path d="M2515.16,850.543l16.66,0l0,23.44l18.791,-0l-0,-23.44l16.659,0l0,62.958l-16.659,-0l-0,-24.989l-18.791,-0l0,24.989l-16.66,-0l0,-62.958Zm195.847,0l16.66,0l0,49.01l23.827,0l0,13.948l-40.487,-0l0,-62.958Zm-117.779,13.948l-16.659,-0l-0,-13.948l49.978,0l0,13.948l-16.659,-0l-0,49.01l-16.66,-0l0,-49.01Zm42.618,-13.948l17.24,0l9.88,26.152l3.487,10.267l0.387,-0l3.487,-10.267l9.492,-26.152l17.241,0l-0,62.958l-15.497,-0l-0,-18.597c-0,-1.614 0.08,-3.39 0.242,-5.327c0.161,-1.937 0.339,-3.923 0.532,-5.957c0.194,-2.034 0.42,-4.019 0.679,-5.957c0.258,-1.937 0.484,-3.68 0.678,-5.23l-0.388,0l-5.23,14.723l-8.717,21.211l-6.199,0l-8.718,-21.211l-5.036,-14.723l-0.388,0c0.194,1.55 0.42,3.293 0.678,5.23c0.259,1.938 0.485,3.923 0.678,5.957c0.194,2.034 0.372,4.02 0.533,5.957c0.161,1.937 0.242,3.713 0.242,5.327l0,18.597l-15.303,-0l-0,-62.958Z" style="fill:rgb(248,251,255);fill-rule:nonzero;"/>
            <path d="M3356.92,1759.61c-0,-17.587 -14.279,-31.866 -31.866,-31.866l-467.372,-0c-17.588,-0 -31.867,14.279 -31.867,31.866l0,617.25c0,17.588 14.279,31.866 31.867,31.866l467.372,0c17.587,0 31.866,-14.278 31.866,-31.866l-0,-617.25Z" style="fill:url(#_Linear7);"/>
            <path d="M3274.51,2304.51c-0,-1.79 -1.453,-3.243 -3.244,-3.243l-359.803,-0c-1.79,-0 -3.244,1.453 -3.244,3.243l0,15.136c0,1.79 1.454,3.244 3.244,3.244l359.803,-0c1.791,-0 3.244,-1.454 3.244,-3.244l-0,-15.136Zm-0,-69.25c-0,-1.79 -1.453,-3.243 -3.244,-3.243l-359.803,-0c-1.79,-0 -3.244,1.453 -3.244,3.243l0,15.136c0,1.79 1.454,3.243 3.244,3.243l359.803,0c1.791,0 3.244,-1.453 3.244,-3.243l-0,-15.136Zm-0,-69.25c-0,-1.79 -1.453,-3.244 -3.244,-3.244l-359.803,0c-1.79,0 -3.244,1.454 -3.244,3.244l0,15.136c0,1.79 1.454,3.243 3.244,3.243l359.803,0c1.791,0 3.244,-1.453 3.244,-3.243l-0,-15.136Zm-0,-69.251c-0,-1.79 -1.453,-3.243 -3.244,-3.243l-359.803,-0c-1.79,-0 -3.244,1.453 -3.244,3.243l0,15.136c0,1.79 1.454,3.244 3.244,3.244l359.803,-0c1.791,-0 3.244,-1.454 3.244,-3.244l-0,-15.136Zm-0,-69.25c-0,-1.79 -1.453,-3.243 -3.244,-3.243l-359.803,-0c-1.79,-0 -3.244,1.453 -3.244,3.243l0,15.136c0,1.79 1.454,3.244 3.244,3.244l359.803,-0c1.791,-0 3.244,-1.454 3.244,-3.244l-0,-15.136Zm-0,-69.25c-0,-1.79 -1.453,-3.244 -3.244,-3.244l-359.803,0c-1.79,0 -3.244,1.454 -3.244,3.244l0,15.136c0,1.79 1.454,3.243 3.244,3.243l359.803,0c1.791,0 3.244,-1.453 3.244,-3.243l-0,-15.136Zm-0,-131.748c-0,-7.138 -5.795,-12.933 -12.932,-12.933l-340.426,0c-7.138,0 -12.933,5.795 -12.933,12.933l0,60.351c0,7.137 5.795,12.932 12.933,12.932l340.426,-0c7.137,-0 12.932,-5.795 12.932,-12.932l-0,-60.351Z" style="fill:rgb(224,231,247);"/>
            <path d="M3128.68,1237.31c-0,-17.396 -14.124,-31.519 -31.52,-31.519l-388.843,-0c-17.397,-0 -31.52,14.123 -31.52,31.519l0,252.156c0,17.397 14.123,31.52 31.52,31.52l388.843,-0c17.396,-0 31.52,-14.123 31.52,-31.52l-0,-252.156Z" style="fill:url(#_Linear8);"/>
            <path d="M2779.27,1364.16c-0,-8.501 1.347,-16.043 4.043,-22.625c2.695,-6.583 6.324,-12.13 10.885,-16.639c4.561,-4.51 9.822,-7.957 15.783,-10.341c5.961,-2.384 12.207,-3.576 18.738,-3.576c6.427,-0 12.259,1.321 17.494,3.965c5.235,2.643 9.667,5.779 13.295,9.408l-14.617,16.483c-2.488,-2.177 -4.924,-3.862 -7.308,-5.054c-2.385,-1.192 -5.236,-1.788 -8.553,-1.788c-3.006,-0 -5.883,0.674 -8.63,2.021c-2.747,1.348 -5.132,3.266 -7.153,5.754c-2.022,2.488 -3.629,5.546 -4.821,9.174c-1.192,3.629 -1.788,7.724 -1.788,12.285c-0,9.537 1.996,16.846 5.987,21.925c3.991,5.08 9.252,7.62 15.783,7.62c3.939,0 7.334,-0.752 10.185,-2.255c2.851,-1.503 5.365,-3.447 7.542,-5.831l14.617,16.172c-4.354,4.976 -9.33,8.708 -14.928,11.196c-5.598,2.488 -11.507,3.732 -17.727,3.732c-6.635,0 -12.907,-1.062 -18.816,-3.188c-5.909,-2.125 -11.092,-5.339 -15.55,-9.641c-4.457,-4.302 -7.982,-9.693 -10.574,-16.172c-2.591,-6.479 -3.887,-14.021 -3.887,-22.625Zm184.424,18.815c3.628,2.903 7.541,5.262 11.74,7.076c4.198,1.814 8.164,2.721 11.896,2.721c4.043,0 6.971,-0.622 8.786,-1.866c1.814,-1.244 2.721,-3.006 2.721,-5.287c-0,-1.244 -0.311,-2.281 -0.933,-3.11c-0.622,-0.829 -1.529,-1.607 -2.721,-2.333c-1.193,-0.725 -2.618,-1.425 -4.277,-2.099c-1.658,-0.674 -3.576,-1.425 -5.753,-2.255l-12.596,-5.287c-2.695,-1.036 -5.287,-2.41 -7.775,-4.12c-2.488,-1.711 -4.665,-3.732 -6.531,-6.065c-1.866,-2.332 -3.343,-5.002 -4.432,-8.008c-1.088,-3.007 -1.632,-6.324 -1.632,-9.952c-0,-4.354 0.933,-8.423 2.799,-12.207c1.866,-3.784 4.457,-7.101 7.775,-9.952c3.317,-2.851 7.282,-5.106 11.895,-6.764c4.614,-1.659 9.667,-2.488 15.162,-2.488c5.805,-0 11.688,1.088 17.649,3.265c5.961,2.177 11.274,5.598 15.939,10.263l-13.373,16.794c-3.421,-2.384 -6.713,-4.198 -9.874,-5.442c-3.162,-1.244 -6.609,-1.866 -10.341,-1.866c-3.318,-0 -5.909,0.57 -7.775,1.71c-1.866,1.141 -2.799,2.851 -2.799,5.132c-0,2.384 1.321,4.224 3.965,5.52c2.644,1.296 6.298,2.825 10.963,4.587l12.284,4.821c6.324,2.488 11.196,5.961 14.617,10.418c3.421,4.458 5.132,10.212 5.132,17.261c-0,4.25 -0.881,8.345 -2.644,12.285c-1.762,3.939 -4.328,7.386 -7.697,10.34c-3.369,2.955 -7.49,5.313 -12.362,7.076c-4.873,1.762 -10.471,2.643 -16.794,2.643c-6.428,0 -13.036,-1.166 -19.827,-3.499c-6.79,-2.332 -12.932,-5.986 -18.426,-10.962l15.239,-18.35Zm-84.593,0c3.629,2.903 7.542,5.262 11.741,7.076c4.198,1.814 8.163,2.721 11.895,2.721c4.043,0 6.972,-0.622 8.786,-1.866c1.814,-1.244 2.721,-3.006 2.721,-5.287c0,-1.244 -0.311,-2.281 -0.933,-3.11c-0.622,-0.829 -1.529,-1.607 -2.721,-2.333c-1.192,-0.725 -2.617,-1.425 -4.276,-2.099c-1.659,-0.674 -3.577,-1.425 -5.754,-2.255l-12.595,-5.287c-2.696,-1.036 -5.287,-2.41 -7.775,-4.12c-2.488,-1.711 -4.665,-3.732 -6.531,-6.065c-1.866,-2.332 -3.344,-5.002 -4.432,-8.008c-1.089,-3.007 -1.633,-6.324 -1.633,-9.952c0,-4.354 0.933,-8.423 2.799,-12.207c1.866,-3.784 4.458,-7.101 7.775,-9.952c3.318,-2.851 7.283,-5.106 11.896,-6.764c4.613,-1.659 9.667,-2.488 15.161,-2.488c5.806,-0 11.689,1.088 17.65,3.265c5.961,2.177 11.274,5.598 15.939,10.263l-13.374,16.794c-3.421,-2.384 -6.712,-4.198 -9.874,-5.442c-3.162,-1.244 -6.609,-1.866 -10.341,-1.866c-3.317,-0 -5.909,0.57 -7.775,1.71c-1.866,1.141 -2.799,2.851 -2.799,5.132c0,2.384 1.322,4.224 3.966,5.52c2.643,1.296 6.297,2.825 10.962,4.587l12.285,4.821c6.324,2.488 11.196,5.961 14.617,10.418c3.421,4.458 5.132,10.212 5.132,17.261c-0,4.25 -0.882,8.345 -2.644,12.285c-1.762,3.939 -4.328,7.386 -7.697,10.34c-3.369,2.955 -7.49,5.313 -12.363,7.076c-4.872,1.762 -10.47,2.643 -16.794,2.643c-6.427,0 -13.036,-1.166 -19.826,-3.499c-6.79,-2.332 -12.932,-5.986 -18.427,-10.962l15.239,-18.35Z" style="fill:white;fill-rule:nonzero;"/>
        </g>
    </g>
    <defs>
        <linearGradient id="_Linear1" x1="0" y1="0" x2="1" y2="0" gradientUnits="userSpaceOnUse" gradientTransform="matrix(32.0831,672.157,-672.157,32.0831,2174.5,1894.46)"><stop offset="0" style="stop-color:rgb(255,217,91);stop-opacity:1"/><stop offset="1" style="stop-color:rgb(255,167,66);stop-opacity:1"/></linearGradient>
        <linearGradient id="_Linear2" x1="0" y1="0" x2="1" y2="0" gradientUnits="userSpaceOnUse" gradientTransform="matrix(15.169,454.339,-454.339,15.169,2245.28,2112.28)"><stop offset="0" style="stop-color:rgb(190,135,20);stop-opacity:1"/><stop offset="1" style="stop-color:rgb(255,150,30);stop-opacity:1"/></linearGradient>
        <linearGradient id="_Linear3" x1="0" y1="0" x2="1" y2="0" gradientUnits="userSpaceOnUse" gradientTransform="matrix(1.06581e-13,356.015,-356.015,2.17996e-14,1793.59,2107.64)"><stop offset="0" style="stop-color:rgb(26,36,148);stop-opacity:1"/><stop offset="1" style="stop-color:rgb(21,25,105);stop-opacity:1"/></linearGradient>
        <linearGradient id="_Linear4" x1="0" y1="0" x2="1" y2="0" gradientUnits="userSpaceOnUse" gradientTransform="matrix(1.32879e-14,288.166,-217.009,1.76451e-14,906.361,1789.35)"><stop offset="0" style="stop-color:rgb(251,226,133);stop-opacity:1"/><stop offset="1" style="stop-color:rgb(240,168,36);stop-opacity:1"/></linearGradient>
        <linearGradient id="_Linear5" x1="0" y1="0" x2="1" y2="0" gradientUnits="userSpaceOnUse" gradientTransform="matrix(-4.40021,229.912,-229.912,-4.40021,1979.58,507.437)"><stop offset="0" style="stop-color:rgb(131,229,183);stop-opacity:1"/><stop offset="1" style="stop-color:rgb(30,163,127);stop-opacity:1"/></linearGradient>
        <linearGradient id="_Linear6" x1="0" y1="0" x2="1" y2="0" gradientUnits="userSpaceOnUse" gradientTransform="matrix(9.4864e-15,154.925,-154.925,9.4864e-15,2597.05,801.057)"><stop offset="0" style="stop-color:rgb(115,184,245);stop-opacity:1"/><stop offset="1" style="stop-color:rgb(77,94,239);stop-opacity:1"/></linearGradient>
        <linearGradient id="_Linear7" x1="0" y1="0" x2="1" y2="0" gradientUnits="userSpaceOnUse" gradientTransform="matrix(3.62761e-14,592.434,-592.434,3.62761e-14,3041.12,1774.55)"><stop offset="0" style="stop-color:rgb(36,44,148);stop-opacity:1"/><stop offset="1" style="stop-color:rgb(24,21,104);stop-opacity:1"/></linearGradient>
        <linearGradient id="_Linear8" x1="0" y1="0" x2="1" y2="0" gradientUnits="userSpaceOnUse" gradientTransform="matrix(1.93994e-14,316.817,-316.817,1.93994e-14,3039.13,1222.13)"><stop offset="0" style="stop-color:rgb(242,114,190);stop-opacity:1"/><stop offset="1" style="stop-color:rgb(184,104,215);stop-opacity:1"/></linearGradient>
    </defs>
</svg>
