<?xml version="1.0" encoding="UTF-8"?><svg version="1.1" xmlns="http://www.w3.org/2000/svg" xmlns:xlink="http://www.w3.org/1999/xlink" viewBox="0 0 1500 1500" width="1500" height="1500" x="0px" y="0px">
    
    
    <!-- ITEM 0 -->
    <g>
        <defs>
            <clipPath id="clip-path-id-viewbox-item-0">
                <rect x="0.0" y="0.0" width="617.5" height="509.3"/>
            </clipPath>
        </defs>
        <g transform="translate(181.0 230.0) rotate(0.0 571.5 471.5) scale(1.8510121457489879 1.8515609660318084)">
            <g clip-path="url(#clip-path-id-viewbox-item-0)" transform="translate(-0.0 -0.0)">
                

<g>
	<path d="M617.5,208.9c0,141.9-172,300.6-337.5,300.4c-173.1-0.2-270.8-57-279.8-276.7C-5.6,90.8,127.7,36.2,290.9,8.5   C517.4-30.1,617.5,67,617.5,208.9z" style="fill:#dae3ff;"/>
</g>

            </g>
        </g>
    </g>
    
    <!-- ITEM 1 -->
    <g>
        <defs>
            <clipPath id="clip-path-id-viewbox-item-1">
                <rect x="0.0" y="0.0" width="127.8" height="222.4"/>
            </clipPath>
        </defs>
        <g transform="translate(317.0 470.0) rotate(0.0 117.5 206.0) scale(1.8388106416275432 1.8525179856115108)">
            <g clip-path="url(#clip-path-id-viewbox-item-1)" transform="translate(-0.0 -0.0)">
                

<g>
	<path d="M92.7,219.8H29.1c-3,0-5.4-2.4-5.4-5.4v-78.8H47c0.6,0,1.1-0.5,1.1-1.1s-0.5-1.1-1.1-1.1H22.6l0,0l0,0H7.7   c-3,0-5.4-2.4-5.4-5.4V57.5c0-3,2.4-5.4,5.4-5.4h47.8c0.6,0,1.1-0.5,1.1-1.1s-0.5-1.1-1.1-1.1H27.1V20.4c0-0.6-0.5-1.1-1.1-1.1   s-1.1,0.5-1.1,1.1v29.5H7.7c-4.2,0-7.7,3.4-7.7,7.7v70.5c0,4.2,3.4,7.7,7.7,7.7h13.8v78.9c0,4.2,3.4,7.7,7.7,7.7h63.6   c0.6,0,1.1-0.5,1.1-1.1C93.9,220.3,93.4,219.8,92.7,219.8z" style="fill:#FFFFFF;"/>
	<g>
		<path d="M113.6,222.1h-12c-0.6,0-1.1-0.5-1.1-1.1s0.5-1.1,1.1-1.1h12c0.6,0,1.1,0.5,1.1,1.1S114.3,222.1,113.6,222.1z    " style="fill:#FFFFFF;"/>
	</g>
	<g>
		<path d="M126.7,222.1h-6c-0.6,0-1.1-0.5-1.1-1.1s0.5-1.1,1.1-1.1h6c0.6,0,1.1,0.5,1.1,1.1S127.3,222.1,126.7,222.1z" style="fill:#FFFFFF;"/>
	</g>
	<g>
		<path d="M26,14c-0.6,0-1.1-0.5-1.1-1.1V1.1C24.9,0.5,25.4,0,26,0s1.1,0.5,1.1,1.1v11.8C27.1,13.4,26.6,14,26,14z" style="fill:#FFFFFF;"/>
	</g>
</g>

            </g>
        </g>
    </g>
    
    <!-- ITEM 2 -->
    <g>
        <defs>
            <clipPath id="clip-path-id-viewbox-item-2">
                <rect x="0.0" y="0.0" width="365.1" height="50.0"/>
            </clipPath>
        </defs>
        <g transform="translate(381.0 675.0) rotate(0.0 338.5 46.0) scale(1.854286496850178 1.84)">
            <g clip-path="url(#clip-path-id-viewbox-item-2)" transform="translate(-0.0 -0.0)">
                

<g>
	<g>
		<g>
			<path d="M365.1,24c0-13.2-10.8-24-24-24H35.4c-13.2,0-24,10.8-24,24c0,0.3,0,0.6,0,1c0,0.3,0,0.6,0,1     c0,13.2,10.8,24,24,24h305.7c13.2,0,24-10.8,24-24c0-0.3,0-0.6,0-1C365,24.6,365.1,24.3,365.1,24z" style="fill:#6b6b6b;"/>
			<path d="M341.1,2.2H35.3c-12,0-21.7,9.7-21.7,21.7s9.7,21.7,21.7,21.7H341c12,0,21.7-9.7,21.7-21.7     C362.8,12,353.1,2.2,341.1,2.2z" style="fill:#FFFFFF;"/>
		</g>
		<g>
			<g>
				<path d="M34.6,15.1c0.7-0.1,1.5-0.3,2.4-0.3c0.9-0.1,1.8-0.1,2.6-0.1c0.9,0,1.8,0.1,2.7,0.2s1.7,0.4,2.5,0.9      c0.7,0.4,1.3,1,1.8,1.9c0.4,0.8,0.7,1.8,0.7,3.1c0,1.1-0.2,2.1-0.6,2.8s-0.9,1.5-1.6,1.9c-0.7,0.5-1.4,0.9-2.2,1.1      c-0.9,0.2-1.7,0.3-2.6,0.3c-0.1,0-0.2,0-0.4,0s-0.4,0-0.6,0s-0.4,0-0.6,0s-0.3,0-0.4,0v6.3h-3.6L34.6,15.1L34.6,15.1z       M39.9,17.7c-0.3,0-0.7,0-1,0s-0.6,0.1-0.7,0.1v5.9c0.1,0,0.2,0,0.3,0s0.3,0,0.4,0s0.3,0,0.4,0s0.3,0,0.3,0c0.5,0,0.9,0,1.4-0.1      c0.4-0.1,0.9-0.3,1.2-0.5s0.7-0.6,0.9-1s0.3-1,0.3-1.6s-0.1-1-0.3-1.4s-0.5-0.7-0.8-0.9s-0.7-0.4-1.2-0.5      C40.8,17.7,40.3,17.7,39.9,17.7z" style="fill:#6b6b6b;"/>
			</g>
			<g>
				<path d="M49.9,15.1c0.4-0.1,0.8-0.1,1.3-0.2c0.4-0.1,0.9-0.1,1.4-0.1c0.4,0,0.9-0.1,1.3-0.1s0.8,0,1.2,0      c0.9,0,1.7,0.1,2.5,0.3c0.8,0.1,1.6,0.4,2.2,0.9c0.6,0.4,1.2,0.9,1.6,1.6S62,19,62,20c0,0.7-0.1,1.4-0.2,1.9      c-0.1,0.6-0.3,1-0.6,1.5s-0.6,0.8-0.9,1.1c-0.4,0.3-0.8,0.6-1.2,0.8l4.4,8h-4.1l-3.7-7.1h-2.1v7.1H50L49.9,15.1L49.9,15.1z       M55.4,17.8c-0.4,0-0.7,0-1.1,0s-0.6,0-0.8,0.1v5.3h1.4c1,0,1.8-0.2,2.4-0.7c0.6-0.4,0.9-1.2,0.9-2.2c0-0.8-0.3-1.4-0.7-1.8      C57,18.1,56.3,17.8,55.4,17.8z" style="fill:#6b6b6b;"/>
			</g>
			<g>
				<path d="M65.3,29.9h4.6V18h-4.6v-3.2h12.8V18h-4.6v11.9h4.6v3.2H65.3V29.9z" style="fill:#6b6b6b;"/>
			</g>
			<g>
				<path d="M84.4,22.3h-0.2l0.1,2.2v8.6h-3.4V14.8H84L90.3,26h0.1l-0.2-2.2v-9h3.4v18.3h-3.1L84.4,22.3z" style="fill:#6b6b6b;"/>
			</g>
			<g>
				<path d="M98.2,30.3h3V17.8h-2.5v3.1h-2.9v-6h14.3v6h-2.9v-3.1h-2.5v12.5h2.9v2.9h-9.4V30.3z" style="fill:#6b6b6b;"/>
			</g>
			<g>
				<path d="M122.7,36c-1.2-0.2-2.4-0.6-3.5-1.2s-2.2-1.3-3.1-2.3s-1.6-2.2-2.1-3.5s-0.8-3-0.8-4.9      c0-1.8,0.3-3.4,0.8-4.8s1.2-2.6,2.1-3.6s1.9-1.8,3.1-2.4s2.3-1,3.5-1.2l0.6,2.8c-0.6,0.1-1.3,0.4-2.1,0.7      c-0.8,0.4-1.5,0.9-2.2,1.6s-1.3,1.6-1.8,2.7s-0.7,2.5-0.7,4.2c0,1.6,0.3,2.9,0.7,4c0.5,1.1,1.1,2,1.8,2.7s1.5,1.2,2.2,1.6      s1.4,0.6,1.9,0.7L122.7,36z" style="fill:#6b6b6b;"/>
			</g>
			<g>
				<path d="M129.4,16.3c0-0.2,0-0.4,0.1-0.7c0.1-0.2,0.2-0.4,0.4-0.6c0.2-0.2,0.4-0.3,0.6-0.4c0.3-0.1,0.5-0.2,0.9-0.2      c0.3,0,0.7,0.1,1,0.2s0.6,0.3,0.8,0.6c0.2,0.2,0.3,0.5,0.4,0.8s0.1,0.6,0.1,1c0,0.7-0.1,1.3-0.3,1.8s-0.6,1-1,1.5      c-0.2,0.2-0.4,0.4-0.6,0.5c-0.3,0.1-0.5,0.3-0.7,0.4s-0.4,0.2-0.6,0.3c-0.1,0.1-0.3,0.1-0.3,0.1l-1-1.5c0.2-0.1,0.4-0.1,0.6-0.3      c0.2-0.1,0.4-0.3,0.7-0.4c0.2-0.1,0.4-0.4,0.5-0.6s0.2-0.5,0.2-0.8c-0.5,0-0.9-0.1-1.3-0.4C129.6,17.3,129.4,16.8,129.4,16.3z       M134.9,16.3c0-0.2,0-0.4,0.1-0.7c0.1-0.2,0.2-0.4,0.4-0.6c0.2-0.2,0.4-0.3,0.6-0.4c0.3-0.1,0.5-0.2,0.9-0.2      c0.3,0,0.7,0.1,1,0.2s0.6,0.3,0.8,0.6c0.2,0.2,0.3,0.5,0.4,0.8s0.1,0.6,0.1,1c0,0.7-0.1,1.3-0.3,1.8s-0.6,1-1,1.5      c-0.2,0.2-0.4,0.4-0.6,0.5c-0.3,0.1-0.5,0.3-0.7,0.4s-0.4,0.2-0.6,0.3c-0.1,0.1-0.3,0.1-0.3,0.1l-1-1.5c0.2-0.1,0.4-0.1,0.6-0.3      c0.2-0.1,0.4-0.3,0.7-0.4c0.2-0.1,0.4-0.4,0.5-0.6s0.2-0.5,0.2-0.8c-0.5,0-0.9-0.1-1.3-0.4C135.1,17.3,134.9,16.8,134.9,16.3z" style="fill:#6b6b6b;"/>
			</g>
			<g>
				<path d="M152.8,25.5h-5.9v7.6h-3.6V14.8h3.6v7.5h5.9v-7.4h3.6v18.3h-3.6V25.5z" style="fill:#6b6b6b;"/>
			</g>
			<g>
				<path d="M159.5,14.9h11.9v3.2H163v4.3h7.7v3.2H163V30h8.5v3.2h-12.1L159.5,14.9L159.5,14.9z" style="fill:#6b6b6b;"/>
			</g>
			<g>
				<path d="M184.1,25.7h3.2v7.4h-12V14.8h3.6v15h5.2L184.1,25.7L184.1,25.7z" style="fill:#6b6b6b;"/>
			</g>
			<g>
				<path d="M199.7,25.7h3.2v7.4h-12V14.8h3.6v15h5.2L199.7,25.7L199.7,25.7z" style="fill:#6b6b6b;"/>
			</g>
			<g>
				<path d="M205.5,24c0-1.5,0.1-2.8,0.4-4s0.7-2.2,1.3-3c0.6-0.8,1.3-1.4,2.2-1.9c0.9-0.4,1.9-0.6,3-0.6      c1.2,0,2.3,0.2,3.2,0.7c0.9,0.5,1.6,1.1,2.1,1.9c0.6,0.8,0.9,1.8,1.2,3c0.3,1.2,0.4,2.4,0.4,3.8c0,3-0.6,5.3-1.7,7      s-2.9,2.5-5.2,2.5c-1.3,0-2.3-0.2-3.2-0.7c-0.9-0.5-1.6-1.1-2.1-1.9c-0.6-0.8-0.9-1.8-1.2-3C205.6,26.7,205.5,25.4,205.5,24z       M209.3,24c0,0.9,0,1.7,0.1,2.5c0.1,0.7,0.2,1.4,0.4,2s0.5,1,0.9,1.3s0.9,0.5,1.6,0.5c0.6,0,1.1-0.1,1.5-0.4s0.7-0.6,1-1.2      s0.4-1.2,0.5-2s0.1-1.7,0.1-2.8c0-0.9,0-1.6-0.1-2.4c-0.1-0.7-0.2-1.4-0.4-2c-0.2-0.6-0.5-1-0.9-1.4s-1-0.5-1.7-0.5      c-1.2,0-2.1,0.5-2.5,1.6C209.5,20.4,209.3,21.9,209.3,24z" style="fill:#6b6b6b;"/>
			</g>
			<g>
				<path d="M240.4,25.1v2.2h0.1l0.4-2.1l1.6-4.9h2.7l1.5,4.9l0.5,2.1h0.1v-2.2l0.7-10.2h3.3l-1.9,18.3h-3l-1.9-5.7      l-0.6-2.5h-0.1l-0.6,2.5l-2.1,5.7H238l-1.9-18.3h3.6L240.4,25.1z" style="fill:#6b6b6b;"/>
			</g>
			<g>
				<path d="M252.4,24c0-1.5,0.1-2.8,0.4-4s0.7-2.2,1.3-3c0.6-0.8,1.3-1.4,2.2-1.9c0.9-0.4,1.9-0.6,3-0.6      c1.2,0,2.3,0.2,3.2,0.7s1.6,1.1,2.1,1.9c0.6,0.8,0.9,1.8,1.2,3c0.3,1.2,0.4,2.4,0.4,3.8c0,3-0.6,5.3-1.7,7      c-1.1,1.7-2.9,2.5-5.2,2.5c-1.3,0-2.3-0.2-3.2-0.7c-0.9-0.5-1.6-1.1-2.1-1.9c-0.6-0.8-0.9-1.8-1.2-3      C252.6,26.7,252.4,25.4,252.4,24z M256.2,24c0,0.9,0,1.7,0.1,2.5c0.1,0.7,0.2,1.4,0.4,2s0.5,1,0.9,1.3c0.4,0.3,0.9,0.5,1.6,0.5      c0.6,0,1.1-0.1,1.5-0.4c0.4-0.3,0.7-0.6,1-1.2s0.4-1.2,0.5-2c0.1-0.8,0.1-1.7,0.1-2.8c0-0.9,0-1.6-0.1-2.4      c-0.1-0.7-0.2-1.4-0.4-2s-0.5-1-0.9-1.4c-0.4-0.3-1-0.5-1.7-0.5c-1.2,0-2.1,0.5-2.5,1.6C256.4,20.4,256.2,21.9,256.2,24z" style="fill:#6b6b6b;"/>
			</g>
			<g>
				<path d="M268.7,15.1c0.4-0.1,0.8-0.1,1.3-0.2c0.4-0.1,0.9-0.1,1.4-0.1c0.4,0,0.9-0.1,1.3-0.1c0.4,0,0.8,0,1.2,0      c0.9,0,1.7,0.1,2.5,0.3c0.8,0.1,1.6,0.4,2.2,0.9c0.6,0.4,1.2,0.9,1.6,1.6c0.4,0.7,0.6,1.5,0.6,2.5c0,0.7-0.1,1.4-0.2,1.9      c-0.1,0.5-0.3,1-0.6,1.5c-0.3,0.5-0.6,0.8-0.9,1.1c-0.4,0.3-0.8,0.6-1.2,0.8l4.4,8h-4.1l-3.7-7.1h-2.1v7.1h-3.6L268.7,15.1      L268.7,15.1z M274.2,17.8c-0.4,0-0.7,0-1.1,0c-0.4,0-0.6,0-0.8,0.1v5.3h1.4c1,0,1.8-0.2,2.4-0.7c0.6-0.4,0.9-1.2,0.9-2.2      c0-0.8-0.3-1.4-0.7-1.8S275.1,17.8,274.2,17.8z" style="fill:#6b6b6b;"/>
			</g>
			<g>
				<path d="M293.6,25.7h3.2v7.4h-12V14.8h3.6v15h5.2L293.6,25.7L293.6,25.7z" style="fill:#6b6b6b;"/>
			</g>
			<g>
				<path d="M299.7,14.9c0.1,0,0.4,0,0.8-0.1c0.4,0,0.8-0.1,1.3-0.1s1,0,1.5-0.1c0.5,0,1,0,1.4,0c1.6,0,2.9,0.2,4,0.7      c1,0.5,1.9,1.1,2.5,1.9s1,1.8,1.3,2.9s0.4,2.4,0.4,3.7c0,1.2-0.1,2.4-0.4,3.5c-0.3,1.2-0.7,2.2-1.3,3.1s-1.5,1.6-2.6,2.2      s-2.6,0.8-4.3,0.8c-0.3,0-0.6,0-1.1,0c-0.4,0-0.9,0-1.3-0.1c-0.5,0-0.9,0-1.3-0.1c-0.4-0.1-0.7-0.1-1-0.1L299.7,14.9L299.7,14.9      z M304.9,17.8c-0.3,0-0.6,0-1,0c-0.3,0-0.6,0-0.7,0.1v12.2c0.1,0,0.2,0,0.3,0s0.3,0,0.4,0s0.3,0,0.4,0c0.1,0,0.3,0,0.3,0      c1,0,1.8-0.2,2.4-0.6s1-0.9,1.3-1.5s0.5-1.3,0.6-2.1c0.1-0.7,0.1-1.5,0.1-2.3c0-0.7,0-1.3-0.1-2.1c-0.1-0.7-0.3-1.4-0.6-1.9      c-0.3-0.6-0.7-1.1-1.3-1.5C306.7,18,305.9,17.8,304.9,17.8z" style="fill:#6b6b6b;"/>
			</g>
			<g>
				<path d="M317,16.3c0-0.2,0-0.4,0.1-0.7s0.2-0.4,0.4-0.6s0.4-0.3,0.6-0.4c0.3-0.1,0.5-0.2,0.9-0.2      c0.3,0,0.7,0.1,1,0.2s0.6,0.3,0.8,0.6c0.2,0.2,0.3,0.5,0.4,0.8c0.1,0.3,0.1,0.6,0.1,1c0,0.7-0.1,1.3-0.3,1.8s-0.6,1-1,1.5      c-0.2,0.2-0.4,0.4-0.6,0.5c-0.3,0.1-0.5,0.3-0.7,0.4s-0.4,0.2-0.6,0.3c-0.1,0.1-0.3,0.1-0.3,0.1l-1-1.5c0.2-0.1,0.4-0.1,0.6-0.3      c0.2-0.1,0.4-0.3,0.7-0.4c0.2-0.1,0.4-0.4,0.5-0.6s0.2-0.5,0.2-0.8c-0.5,0-0.9-0.1-1.3-0.4C317.2,17.3,317,16.8,317,16.3z       M322.5,16.3c0-0.2,0-0.4,0.1-0.7c0.1-0.2,0.2-0.4,0.4-0.6s0.4-0.3,0.6-0.4c0.3-0.1,0.5-0.2,0.9-0.2c0.3,0,0.7,0.1,1,0.2      s0.6,0.3,0.8,0.6c0.2,0.2,0.3,0.5,0.4,0.8c0.1,0.3,0.1,0.6,0.1,1c0,0.7-0.1,1.3-0.3,1.8c-0.2,0.6-0.6,1-1,1.5      c-0.2,0.2-0.4,0.4-0.6,0.5c-0.3,0.1-0.5,0.3-0.7,0.4s-0.4,0.2-0.6,0.3c-0.1,0.1-0.3,0.1-0.3,0.1l-1-1.5c0.2-0.1,0.4-0.1,0.6-0.3      c0.2-0.1,0.4-0.3,0.7-0.4c0.2-0.1,0.4-0.4,0.5-0.6s0.2-0.5,0.2-0.8c-0.5,0-0.9-0.1-1.3-0.4C322.7,17.3,322.5,16.8,322.5,16.3z" style="fill:#6b6b6b;"/>
			</g>
			<g>
				<path d="M332.8,33.1c0.5-0.1,1.2-0.3,1.9-0.7c0.7-0.4,1.5-0.9,2.2-1.6s1.3-1.6,1.8-2.7s0.7-2.4,0.7-4      c0-1.7-0.2-3.1-0.7-4.2s-1.1-2-1.8-2.7s-1.4-1.2-2.2-1.6s-1.5-0.6-2.1-0.7l0.6-2.8c1.2,0.2,2.4,0.6,3.5,1.2      c1.2,0.6,2.2,1.4,3.1,2.4c0.9,1,1.6,2.2,2.1,3.6s0.8,3,0.8,4.8s-0.3,3.5-0.8,4.9s-1.2,2.6-2.1,3.5c-0.9,1-1.9,1.8-3.1,2.3      c-1.2,0.6-2.3,1-3.5,1.2L332.8,33.1z" style="fill:#6b6b6b;"/>
			</g>
		</g>
	</g>
	<g>
		<g>
			<circle cx="10.5" cy="24" r="10.5" style="fill:#6b6b6b;"/>
		</g>
		<g>
			<circle cx="10.5" cy="24" r="4.4" style="fill:#FFFFFF;"/>
		</g>
	</g>
</g>

            </g>
        </g>
    </g>
    
    <!-- ITEM 3 -->
    <g>
        <defs>
            <clipPath id="clip-path-id-viewbox-item-3">
                <rect x="0.0" y="0.0" width="84.6" height="51.1"/>
            </clipPath>
        </defs>
        <g transform="translate(522.0 1112.0) rotate(-147.56026692859552 80.5 48.5) scale(1.9030732860520096 1.898238747553816)">
            <g clip-path="url(#clip-path-id-viewbox-item-3)" transform="translate(-0.0 -0.0)">
                

<g>
	<g>
		<g>
			<path d="M63.1,46.6l-28.2,3.2C22.4,51.2,11,42.2,9.6,29.7l0,0C8.2,17.2,17.2,5.8,29.7,4.4l28.2-3.2     c12.5-1.4,23.9,7.6,25.3,20.1l0,0C84.7,33.9,75.7,45.2,63.1,46.6z" style="fill:#FFFFFF;"/>
			<path d="M32.3,51.1c-5.4,0-10.6-1.8-14.9-5.2c-5-4-8.2-9.7-8.9-16.1c-1.5-13.1,8-25,21.1-26.5l28.2-3.2     c6.4-0.7,12.6,1.1,17.7,5c5,4,8.2,9.7,8.9,16.1c1.5,13.1-8,25-21.1,26.5l0,0l-28.2,3.2C34.2,51,33.2,51.1,32.3,51.1z M60.6,2.2     c-0.8,0-1.6,0-2.5,0.1L29.9,5.5C18,6.8,9.4,17.7,10.8,29.6C12.1,41.5,23,50.1,34.9,48.7l28.2-3.2C75,44.2,83.6,33.3,82.2,21.4     C80.9,10.4,71.5,2.2,60.6,2.2z M63.1,46.6L63.1,46.6L63.1,46.6z" style="fill:#6b6b6b;"/>
		</g>
	</g>
	<g>
		<g>
			<circle cx="10.5" cy="29.6" r="10.5" style="fill:#6b6b6b;"/>
		</g>
		<g>
			<circle cx="10.5" cy="29.6" r="4.4" style="fill:#FFFFFF;"/>
		</g>
	</g>
</g>

            </g>
        </g>
    </g>
    
    <!-- ITEM 4 -->
    <g>
        <defs>
            <clipPath id="clip-path-id-viewbox-item-4">
                <rect x="0.0" y="0.0" width="665.3" height="65.0"/>
            </clipPath>
        </defs>
        <g transform="translate(148.0 1227.0) rotate(0.0 615.5 60.0) scale(1.8502931008567565 1.8461538461538463)">
            <g clip-path="url(#clip-path-id-viewbox-item-4)" transform="translate(-0.0 -0.0)">
                

<g>
	<g>
		<path d="M665.3,26.9c0,2.6-4.7,5.2-13.3,7.6c-16.9,4.7-49.2,8.8-92.1,12.1s-96.5,5.6-156,6.6    c-22.9,0.4-46.7,0.6-71.2,0.6C149,53.8,0,41.7,0,26.9C0,12,148.9,0,332.7,0S665.3,12,665.3,26.9z" style="fill:#dae3ff;"/>
	</g>
	<g>
		<path d="M403.8,65c-0.6,0-1.1-0.5-1.1-1.1s0.5-1.1,1.1-1.2c58.2-1,112.2-3.3,156-6.6c43.6-3.3,75.3-7.5,91.9-12.1    c0.6-0.1,1.2,0.2,1.4,0.8c0.1,0.6-0.2,1.2-0.8,1.4c-16.7,4.6-48.7,8.8-92.4,12.1C516,61.6,462.1,63.9,403.8,65L403.8,65z" style="fill:#dae3ff;"/>
	</g>
</g>

            </g>
        </g>
    </g>
    
    <!-- ITEM 5 -->
    <g>
        <defs>
            <clipPath id="clip-path-id-viewbox-item-5">
                <rect x="0.0" y="0.0" width="55.6" height="22.4"/>
            </clipPath>
        </defs>
        <g transform="translate(563.0 1098.0) rotate(0.0 50.0 20.0) scale(1.7985611510791366 1.7857142857142858)">
            <g clip-path="url(#clip-path-id-viewbox-item-5)" transform="translate(-0.0 -0.0)">
                

<path d="M0,3.8c0.3,2.1,1.5,6.8,6.7,9.6c7,3.8,29.8,9,29.8,9s10.5-4.2,16.4-4.7c0.1,0,0.3,0,0.4-0.1l2.3-0.4  c-1.2-4.2-3.5-7.9-6.8-10.9C44.1,2,38-0.3,31.6,0L3.3,1.2c-1.1,0-2.1,0.2-3.1,0.3C-0.1,2.2,0,3.8,0,3.8z" style="fill:#6b6b6b;"/>

            </g>
        </g>
    </g>
    
    <!-- ITEM 6 -->
    <g>
        <defs>
            <clipPath id="clip-path-id-viewbox-item-6">
                <rect x="0.0" y="0.0" width="83.6" height="57.7"/>
            </clipPath>
        </defs>
        <g transform="translate(548.0 1030.0) rotate(0.0 78.0 53.0) scale(1.8660287081339715 1.8370883882149045)">
            <g clip-path="url(#clip-path-id-viewbox-item-6)" transform="translate(-0.0 -0.0)">
                

<g>
	<g>
		<g>
			<path d="M66,8.5L38.7,0.9C32.5-0.8,26,0,20.5,3.1c-5.6,3.2-9.6,8.3-11.3,14.5c-0.1,0.3-0.2,0.7-0.3,1.1     c-0.1,0.3-0.2,0.7-0.3,1c-3.5,12.7,4,26,16.7,29.5l27.3,7.6l0,0c2.1,0.6,4.3,0.9,6.4,0.9c4.1,0,8.1-1,11.8-3.1     c5.6-3.2,9.6-8.3,11.3-14.5c0.1-0.3,0.2-0.7,0.3-1c0.1-0.3,0.2-0.7,0.3-1C86.2,25.3,78.8,12,66,8.5z M53.8,52.6L26.5,45     c-5.6-1.5-10.3-5.2-13.1-10.2c-2.7-4.7-3.5-10.2-2.3-15.5c1.7-5.2,5.2-9.4,9.9-12.1c3.3-1.9,7-2.8,10.7-2.8     c1.9,0,3.9,0.3,5.8,0.8l27.3,7.6c11.2,3.1,18,14.5,15.4,25.7C76.6,49.4,65,55.7,53.8,52.6z" style="fill:#6b6b6b;"/>
			<path d="M69.8,52.7c5-2.9,8.7-7.5,10.2-13.1C83.2,28,76.4,16,64.8,12.8L37.5,5.2c-1.9-0.5-3.9-0.8-5.8-0.8     c-3.7,0-7.4,1-10.7,2.8c-5,2.9-8.7,7.5-10.2,13.1C7.6,31.9,14.4,43.9,26,47.1l27.3,7.6l0,0C58.8,56.2,64.7,55.5,69.8,52.7z" style="fill:#FFFFFF;"/>
		</g>
		<g>
			<path d="M34.2,15.7c0.2,0,0.4,0.1,0.9,0.1c0.4,0.1,0.9,0.2,1.4,0.3s1.1,0.3,1.6,0.4c0.6,0.1,1,0.3,1.5,0.4     c1.7,0.5,3,1.1,4,1.9c1,0.8,1.7,1.7,2.1,2.8c0.4,1,0.6,2.2,0.5,3.4s-0.3,2.6-0.7,4c-0.3,1.3-0.8,2.5-1.4,3.6     c-0.6,1.1-1.3,2.1-2.3,2.8s-2.1,1.3-3.4,1.5c-1.3,0.3-2.9,0.1-4.8-0.4c-0.3-0.1-0.7-0.2-1.1-0.3s-0.9-0.3-1.4-0.4     c-0.4-0.1-0.9-0.3-1.3-0.4c-0.4-0.1-0.7-0.3-1-0.4L34.2,15.7z M38.9,20.3c-0.3-0.1-0.7-0.2-1-0.2C37.6,20,37.3,20,37.2,20     l-3.5,12.8c0.1,0,0.2,0.1,0.3,0.1c0.1,0.1,0.3,0.1,0.4,0.1s0.3,0.1,0.4,0.1s0.3,0.1,0.3,0.1c1,0.3,1.9,0.3,2.7,0.1     c0.7-0.2,1.3-0.6,1.8-1.2c0.5-0.6,0.9-1.2,1.2-2c0.3-0.8,0.6-1.6,0.8-2.4c0.2-0.7,0.3-1.4,0.5-2.2c0.1-0.8,0.1-1.5,0-2.2     s-0.4-1.3-0.9-1.9C40.6,21,39.9,20.6,38.9,20.3z" style="fill:#6b6b6b;"/>
			<path d="M47.6,29.7c0.4-1.6,1-2.9,1.6-4.1c0.6-1.2,1.4-2.1,2.2-2.8s1.8-1.1,2.8-1.3s2.2-0.1,3.4,0.2     c1.3,0.4,2.4,0.9,3.1,1.7c0.8,0.7,1.3,1.6,1.7,2.7c0.3,1,0.4,2.2,0.4,3.5s-0.3,2.7-0.7,4.1c-0.9,3.1-2.1,5.4-3.8,6.8     c-1.7,1.4-3.7,1.8-6.2,1.1c-1.3-0.4-2.4-0.9-3.1-1.7s-1.3-1.6-1.7-2.7c-0.3-1-0.4-2.2-0.4-3.5C47,32.6,47.2,31.2,47.6,29.7z      M51.5,30.8c-0.3,0.9-0.4,1.8-0.6,2.7c-0.1,0.8-0.2,1.6-0.1,2.2c0.1,0.7,0.3,1.2,0.6,1.7c0.3,0.4,0.9,0.8,1.6,1     c0.6,0.2,1.2,0.2,1.7,0c0.5-0.1,0.9-0.4,1.3-0.9s0.8-1.1,1.1-1.9c0.3-0.8,0.6-1.8,1-2.9c0.3-0.9,0.4-1.8,0.6-2.6     c0.1-0.8,0.2-1.6,0.1-2.2s-0.3-1.2-0.6-1.7c-0.3-0.5-0.9-0.8-1.6-1c-1.3-0.3-2.3,0-3.1,0.9C52.9,27.1,52.1,28.7,51.5,30.8z" style="fill:#6b6b6b;"/>
		</g>
	</g>
	<g>
		<g>
			<circle cx="10.5" cy="20.3" r="10.5" style="fill:#6b6b6b;"/>
		</g>
		<g>
			<circle cx="10.5" cy="20.3" r="4.4" style="fill:#FFFFFF;"/>
		</g>
	</g>
</g>

            </g>
        </g>
    </g>
    
    <!-- ITEM 7 -->
    <g>
        <defs>
            <clipPath id="clip-path-id-viewbox-item-7">
                <rect x="0.0" y="0.0" width="157.484" height="162.808"/>
            </clipPath>
        </defs>
        <g transform="translate(717.0 953.0) rotate(0.0 145.5 150.0) scale(1.847806761321785 1.8426612942852931)">
            <g clip-path="url(#clip-path-id-viewbox-item-7)" transform="translate(-0.0 -0.0)">
                <title>porcupine_hedgehog</title><g id="Layer_2-i7" data-name="Layer 2"><g id="porcupine_hedgehog-i7"><path d="M84.715,158.408l.1-.1a1.421,1.421,0,0,0,.2-.6v-.2a.367.367,0,0,0-.1-.3l-16.5-45.3a.758.758,0,0,0-.2-.4,3.958,3.958,0,0,0-7.1,3.5l20.1,40.5a17.281,17.281,0,0,0-4.1-.4c-4.3,0-7.7,1.2-7.7,2.6s3.5,2.6,7.7,2.6c3.4,0,6.2-.7,7.2-1.7.3-.1.3-.2.4-.2Z" fill="#6b6b6b"/><path d="M60.515,55.908s-23.1-38-30.9-30.5c-6,5.8,9.8,37.4,8.5,46-1.2,8.5-15.9,61.3,37.4,54.8" fill="#fff"/><path d="M43.315,70.208c-.2,7.9-7.4,53.9,31.4,52l-14.1-66.3s-23.1-38-30.9-30.5C24.315,31.908,43.515,61.508,43.315,70.208Z" fill="#dae3ff"/><path d="M63.715,160.808a1.421,1.421,0,0,0,.2-.6v-.4l-12.9-45.6c0-.1-.1-.3-.1-.4a3.927,3.927,0,0,0-7.3,2.9l16.8,41.3a18.5,18.5,0,0,0-4.3-.4c-4.3,0-7.7,1.2-7.7,2.6s3.5,2.6,7.7,2.6c3.3,0,6.1-.7,7.2-1.7C63.515,161.108,63.615,160.908,63.715,160.808Z" fill="#6b6b6b"/><ellipse cx="27.919" cy="24.202" rx="5.2" ry="6" transform="translate(-8.477 30.57) rotate(-50.844)" fill="#6b6b6b"/><circle cx="42.115" cy="47.808" r="2.9" fill="#6b6b6b"/><path d="M157.315,94.008a100.221,100.221,0,0,0-8.9-11.7c-1.6-1.8-3.4-3.6-5.2-5.3-.9-.9-1.8-1.6-2.8-2.5a17.41,17.41,0,0,0-1.4-1.2l-1.5-1.2c-.6-.5-1.3-1-2-1.5,4.9,1.3,9.6,2.9,14.4,4.6h0a.7.7,0,0,0,.9-.4.819.819,0,0,0-.4-1,207.627,207.627,0,0,0-21.7-7.8,1.268,1.268,0,0,0-.6-.1,79.985,79.985,0,0,0-17-7.3,92.9,92.9,0,0,0-14.6-3.2h1.1c2.1.1,4.1.3,6.2.6l1.5.2c.5.1,1,.1,1.5.2l3.1.6,1.5.3,1.5.3,3.1.7c.5.1,1,.3,1.5.4l1.5.4,3,.9h0a.87.87,0,0,0,.9-.4c.1-.4,0-.8-.4-.9l-3-1.2-1.5-.6-1.5-.6-3-1-1.5-.5c-.5-.1-1-.3-1.5-.4l-2.4-.7a25.123,25.123,0,0,1,2.7.4,138.456,138.456,0,0,1,16.7,3.7.807.807,0,0,0,.9-.4c.1-.4,0-.8-.4-.9a137.767,137.767,0,0,0-16.6-5,111.092,111.092,0,0,0-17.3-2.6,104.637,104.637,0,0,0-17.7.2,88.931,88.931,0,0,0-8.8,1.3c-1.5.3-2.9.6-4.4,1-.7.2-1.5.4-2.2.6a4.875,4.875,0,0,0-1.1.4l-.4.1c-1.9-2.9-5.1-7.8-8.7-12.7-7.9-10.5-14-16.1-18.3-16.6a5,5,0,0,0-4.1,1.3c-4.1,3.9-.3,15.7,3.7,28.1,2.4,7.5,4.9,15.3,4.4,18.6-.1.7-.3,1.6-.5,2.8-1.8,9.6-6.1,32.2,5.9,45,5.6,5.9,13.9,8.9,24.8,8.9,1.9,0,4-.1,6-.3a62.581,62.581,0,0,0,4.9,4.1,80.2,80.2,0,0,0,18.6,10.7,86.354,86.354,0,0,0,20.5,5.5.76.76,0,0,0,.8-.6.779.779,0,0,0-.6-.9h0a88.442,88.442,0,0,1-19.6-6.5,77.225,77.225,0,0,1-12.6-7.7l1.3.7c.6.3,1.2.6,1.7.9a90.819,90.819,0,0,0,9.7,4.1,4.348,4.348,0,0,1,.7.4,95.147,95.147,0,0,0,9,4.6.806.806,0,0,0,.9-.3.777.777,0,0,0-.3-1h0c-1.6-.9-3.3-1.8-4.9-2.7a.87.87,0,0,0-.4-.9c-.9-.3-1.8-.7-2.7-1.1a1,1,0,0,1-.5-.4c-.7-.4-1.3-1-2-1.4l-1-.7a3.615,3.615,0,0,0-1-.7c-.6-.5-1.3-1-1.9-1.5l-1.9-1.6c-1-.9-1.9-1.7-2.8-2.6a8.794,8.794,0,0,0,1,.6c.7.5,1.5,1,2.3,1.5a139.308,139.308,0,0,0,19.1,10.1.807.807,0,0,0,.9-.3.777.777,0,0,0-.3-1h0a136.386,136.386,0,0,1-18.2-11.1c-.7-.5-1.4-1-2.1-1.6-.7-.5-1.4-1-2.1-1.6-1.4-1.1-2.8-2.2-4.1-3.4q-4.05-3.45-7.8-7.2c-1-1-2-2.1-2.9-3.1-.1-.2-.3-.4-.4-.6h0c2.1,2.1,4.3,4.1,6.5,6.1,1.8,1.6,3.6,3.1,5.5,4.6s3.8,2.9,5.8,4.2,4,2.6,6.1,3.7a55.141,55.141,0,0,0,6.5,3.1.806.806,0,0,0,.9-.3.777.777,0,0,0-.3-1h0c-2.1-1.1-4-2.3-5.9-3.5-1.9-1.3-3.8-2.7-5.6-4.1-.2-.2-.5-.4-.7-.6l.6.4c.7.4,1.3.8,2,1.2l4.1,2.3c1.3.8,2.7,1.5,4.1,2.2l2.1,1.1a19.987,19.987,0,0,0,2.1,1l4.2,2.1c.3.2.7,0,1-.3a.714.714,0,0,0-.3-1h0l-4-2.4c-.7-.4-1.3-.8-2-1.2l-1.9-1.2c-1.3-.8-2.6-1.6-3.9-2.5l-3.8-2.6c-.6-.4-1.3-.9-1.9-1.3l-1.9-1.3c-1.3-.9-2.5-1.8-3.8-2.7l-3.7-2.7-3.7-2.8c-1.1-.9-2.2-1.7-3.3-2.6-.2-.2-.4-.5-.6-.7.1.1.3.2.4.3q7.8,5.1,15.3,10.2c5.1,3.5,10.1,7,14.9,10.8h0a.769.769,0,0,0,1-.1.668.668,0,0,0,0-1c-1.8-1.6-3.6-3.2-5.5-4.7.3,0,.5,0,.7-.3a.44.44,0,0,0,.1-.5c1.3,1.2,2.6,2.4,3.8,3.6a178.779,178.779,0,0,1,14.3,15.8h0a.668.668,0,0,0,1,.1.775.775,0,0,0,.2-1,168.194,168.194,0,0,0-13.5-16.8c-4.6-5-9.3-9.7-14.3-14.4.6.5,1.2.9,1.7,1.4a152.377,152.377,0,0,1,12.6,11.4h0a.668.668,0,0,0,1,0,.769.769,0,0,0,.1-1,117.459,117.459,0,0,0-9-9.7c2.5,2,5,4,7.5,6.1,1,.9,1.9,1.7,2.9,2.6a17.1,17.1,0,0,1,1.3,2.3,59.19,59.19,0,0,1,4.2,9.7h0a.728.728,0,0,0,1.4-.4,73.248,73.248,0,0,0-2.5-7.5,15.915,15.915,0,0,1,1.3,1.3c2.8,2.8,5.5,5.6,8.1,8.6h0a.769.769,0,0,0,1,.1.675.675,0,0,0,.1-1c-2.4-3.1-5-6.2-7.7-9.1-1.9-2.1-3.9-4.1-5.9-6.2-1.2-2-2.4-4-3.8-5.9a95.455,95.455,0,0,0-7.1-8.4c-1.2-1.2-2.3-2.3-3.5-3.4,3.5,2.2,6.9,4.7,10.3,7.2l2.9,2.4a33.29,33.29,0,0,1,2.8,2.5l1.4,1.3,1.3,1.3,2.7,2.7h0a.668.668,0,0,0,1,0,.769.769,0,0,0,.1-1l-2.5-2.9a17.383,17.383,0,0,0-1.3-1.5l-1.3-1.4c-.9-.9-1.8-1.9-2.7-2.8l-2.8-2.7a123.848,123.848,0,0,0-11.9-9.8c-2.4-1.7-4.8-3.4-7.2-5,1.4.6,2.8,1.3,4.1,2,3.4,1.7,6.8,3.6,10.1,5.6a105.991,105.991,0,0,1,9.5,6.5l2.3,1.8,2.2,1.9c.7.6,1.5,1.3,2.2,1.9l1.1,1,.5.5.5.5,2.1,2.1c.7.7,1.3,1.4,2,2.1l1,1.1c.3.4.6.7.9,1.1l1.8,2.2h0a.769.769,0,0,0,1,.1.668.668,0,0,0,.1-1l-1.3-1.9-.9-1.2-.9-1.2c-.6-.7-1.2-1.5-1.9-2.3l-2-2.2-.5-.6-.5-.5-1-1-2.1-2.1-2.2-2-2.2-1.9c-2.1-1.8-4.2-3.5-6.4-5.1.9.6,1.9,1.2,2.8,1.9a67.007,67.007,0,0,1,10.8,9h0a.769.769,0,0,0,1,.1.675.675,0,0,0,.1-1,66.88,66.88,0,0,0-10.3-10.3c-1.1-.9-2.3-1.9-3.5-2.8,2.3,1.4,4.6,3,6.8,4.6h0a.769.769,0,0,0,1-.1.668.668,0,0,0,0-1,83.044,83.044,0,0,0-11.6-8.9,90.312,90.312,0,0,0-13-7,24.425,24.425,0,0,0-2.4-1c1.6.4,3.2.9,4.9,1.4l2.9.9,2.9,1c.7.3,1.5.6,2.2.9.6.5,1.3.9,1.9,1.4a87.715,87.715,0,0,1,9.7,8.6,25.034,25.034,0,0,1,2.2,2.4,25.247,25.247,0,0,1,2.1,2.5,64.055,64.055,0,0,1,3.9,5.2h0a.651.651,0,0,0,.9.2.777.777,0,0,0,.3-1c-1.1-1.9-2.2-3.9-3.5-5.7-.6-.9-1.3-1.8-1.9-2.8-.7-.9-1.3-1.8-2.1-2.7-.8-1-1.6-1.9-2.4-2.8.1,0,.2.1.3.1l2.7,1.5c1.2.7,2.5,1.5,3.7,2.3.8,1.6,1.5,3.2,2.2,4.8h0a.751.751,0,0,0,.9.4.631.631,0,0,0,.4-.9c-.3-.8-.6-1.6-.9-2.5a132.1,132.1,0,0,1,13.2,10.5h0a.707.707,0,0,0,1-1,116.783,116.783,0,0,0-16-13.7,9.25,9.25,0,0,0-.5-1,34.709,34.709,0,0,0-2.1-3.7,9.223,9.223,0,0,1-.5-.8,118.643,118.643,0,0,1,16.8,12.3h0a.76.76,0,0,0,1,0,.668.668,0,0,0,0-1,127.1,127.1,0,0,0-18.1-14.6,8.342,8.342,0,0,0-1.2-.8l-.5-.3a18.66,18.66,0,0,1,2.2.7c2.5.9,5,1.8,7.5,2.9h0a.806.806,0,0,0,.9-.3.777.777,0,0,0-.3-1,71.2,71.2,0,0,0-7.4-3.5c-2.5-1-5-2.1-7.6-2.9l-.9-.3a44.076,44.076,0,0,0-6.4-5c-1.2-.8-2.4-1.6-3.7-2.3a.367.367,0,0,1,.3.1,72.65,72.65,0,0,1,24.4,11.8l2.7,2.1,1.3,1.1.7.6.6.6c1.7,1.5,3.3,3.1,4.9,4.8a98.455,98.455,0,0,1,8.5,10.8h0a.751.751,0,0,0,1,.2.959.959,0,0,0,.3-1,83.044,83.044,0,0,0-8.2-11.5c-1.5-1.8-3.1-3.5-4.8-5.2l-.6-.6-.6-.6-1.3-1.2c-.9-.8-1.8-1.6-2.7-2.3a73.5,73.5,0,0,0-19.1-11.3c.1,0,.1,0,.2.1a74.122,74.122,0,0,1,7.9,2.8q3.9,1.65,7.5,3.6a52.505,52.505,0,0,1,6.9,4.7,47.109,47.109,0,0,1,6,5.8h0a.769.769,0,0,0,1,.1.675.675,0,0,0,.1-1,59.8,59.8,0,0,0-5.8-6.5,70.016,70.016,0,0,0-6.8-5.4,81.525,81.525,0,0,0-7.5-4.4c-1.6-.8-3.1-1.5-4.7-2.2,1.8.3,3.6.7,5.4,1,.9.2,1.9.4,2.8.6h.1a73.17,73.17,0,0,1,10.4,6.2c.5.3,1,.7,1.5,1a17.1,17.1,0,0,1,1.4,1.1c.9.7,1.9,1.5,2.8,2.3,1.8,1.5,3.5,3.2,5.2,4.9a98.541,98.541,0,0,1,9.2,11.1h0a.775.775,0,0,0,1,.2C157.515,94.808,157.615,94.408,157.315,94.008Zm-113.3,23.5c-11.1-11.9-7-33.6-5.2-42.9.2-1.2.4-2.2.5-2.9.6-3.8-1.8-11.2-4.6-19.6-3.2-10.2-7.3-22.8-4.4-25.6a2.531,2.531,0,0,1,2.1-.6c6.6.9,19.1,18.5,25.2,28a3.362,3.362,0,0,0-.7,3.8c-.3.1-.6.1-.9.2a12.09,12.09,0,0,0-1.8.5l-.9.3c-.3.1-.6.2-1,.3h-.1a3.25,3.25,0,0,0-1.9,4.3,3.178,3.178,0,0,0,1.6,1.8l-.8.2a3.178,3.178,0,0,0-.9.3h-.1a3.361,3.361,0,0,0-2.1,4.2,3.208,3.208,0,0,0,2.8,2.2h-.3a3.291,3.291,0,0,0-2.7,3.8,3.247,3.247,0,0,0,2,2.5h0a3.278,3.278,0,0,0-1.8,4,3.292,3.292,0,0,0-.6,5.9l.4.3.7.4a3.3,3.3,0,0,0,0,1.4,3.8,3.8,0,0,0-.7,3.7,3.87,3.87,0,0,0,3.8,2.6,4.253,4.253,0,0,0,.2,1.1l.1.4.1.3.3.7h0a3.779,3.779,0,0,0-.8,3.8,2.982,2.982,0,0,0,1.2,1.7,3.582,3.582,0,0,0,0,2.5,3.727,3.727,0,0,0,4.4,2.5,4.87,4.87,0,0,0,0,2.4,3.993,3.993,0,0,0,4,2.6l1.5,2.1a79.131,79.131,0,0,0,7.1,8.1l.7.7C58.615,126.208,49.715,123.508,44.015,117.508Zm8.5-45.8h-.3c.1,0,.2-.1.3-.1h0C52.415,71.608,52.515,71.608,52.515,71.708Zm23,47.2a115.612,115.612,0,0,0,10.5,10.5l-.4-.3-.7-.6-1.5-1.1c-1.9-1.5-3.8-3.1-5.6-4.8a49.771,49.771,0,0,1-4.9-5.4,48.894,48.894,0,0,1-4.1-6c0-.1-.1-.1-.1-.2l2.2,2.2C72.315,115.108,73.915,117.008,75.515,118.908Zm31.4-39.9c1.5.6,2.9,1.2,4.3,1.8l1.3.6c.4.2.9.4,1.3.6l2.5,1.2a39.672,39.672,0,0,1,2.9,2.9l.7.7.6.8c.4.5.8,1,1.2,1.6.1.1.1.2.2.3l-1.6-1a9.129,9.129,0,0,0-1.3-.8l-1.3-.8-2.7-1.5-2.8-1.5c-.2-.1-.5-.3-.7-.4a65.735,65.735,0,0,0-5.7-4.8C106.115,78.808,106.515,78.908,106.915,79.008Z" fill="#6b6b6b"/><path d="M40.915,74.908h0a44.891,44.891,0,0,1-7.7-6.1l-1.8-1.8-1.6-1.9-.4-.5-.4-.5-.8-1-.8-1-.7-1-.7-1a6.07,6.07,0,0,1-.7-1l-1.4-2.2c-.4-.7-.9-1.5-1.3-2.2s-.9-1.5-1.3-2.3c-.9-1.5-1.6-3.1-2.4-4.6-.7-1.6-1.5-3.2-2.1-4.8a141.866,141.866,0,0,1-6.6-20c-.9-3.4-1.7-6.9-2.4-10.4-.1-.3-.1-.7-.2-1a15.639,15.639,0,0,0,1.3-7.6,3.715,3.715,0,0,0-3.1-3.2,4.881,4.881,0,0,0-3.8,1.9,6.77,6.77,0,0,0-1.8,2.9,5.757,5.757,0,0,0,.9,4.9,6.963,6.963,0,0,0,3.5,2.3v.3c.4,3.6,1,7.2,1.6,10.8a160.256,160.256,0,0,0,5.3,21.2c.6,1.8,1.2,3.5,1.8,5.2.7,1.7,1.3,3.4,2.1,5.1a19.234,19.234,0,0,0,1.2,2.5c.4.8.8,1.7,1.2,2.5l1.3,2.5a7.459,7.459,0,0,0,.7,1.2l.7,1.2.7,1.2.8,1.2.8,1.2.4.6.4.6,1.7,2.3,1.9,2.2a49.826,49.826,0,0,0,8.6,7.9c.1.1.2.1.3.2a4.451,4.451,0,0,0,6.2-1.5A4.52,4.52,0,0,0,40.915,74.908Z" fill="#6b6b6b"/><path d="M54.915,46.008c.1,1.1.1,2.2.2,3.3a1.344,1.344,0,0,1,.7.6c2.1,3.2,4.9,6,7.2,9.1-.1-1.9-.2-3.8-.4-5.7-.3-2.8-.7-5.5-1.2-8.2s-1.1-5.4-1.8-8.1a105.347,105.347,0,0,0-5.1-15.6q-1.5-3.75-3.3-7.5c-.5-1.1-1.1-2.2-1.6-3.3a16.089,16.089,0,0,0,1.2-7.4,3.715,3.715,0,0,0-3.1-3.2,4.881,4.881,0,0,0-3.8,1.9,6.77,6.77,0,0,0-1.8,2.9,5.757,5.757,0,0,0,.9,4.9,6.242,6.242,0,0,0,4.1,2.4c.4,1,.8,2,1.2,3.1q1.35,3.75,2.4,7.5a117.344,117.344,0,0,1,3.3,15.4C54.415,40.808,54.715,43.408,54.915,46.008Z" fill="#6b6b6b"/></g></g>
            </g>
        </g>
    </g>
    
    <!-- ITEM 8 -->
    <g>
        <defs>
            <clipPath id="clip-path-id-viewbox-item-8">
                <rect x="0.0" y="0.0" width="84.6" height="51.1"/>
            </clipPath>
        </defs>
        <g transform="translate(592.0 1123.0) rotate(0.0 79.0 47.5) scale(1.867612293144208 1.8590998043052838)">
            <g clip-path="url(#clip-path-id-viewbox-item-8)" transform="translate(-0.0 -0.0)">
                

<g>
	<g>
		<g>
			<path d="M63.1,46.6l-28.2,3.2C22.4,51.2,11,42.2,9.6,29.7l0,0C8.2,17.2,17.2,5.8,29.7,4.4l28.2-3.2     c12.5-1.4,23.9,7.6,25.3,20.1l0,0C84.7,33.9,75.7,45.2,63.1,46.6z" style="fill:#FFFFFF;"/>
			<path d="M32.3,51.1c-5.4,0-10.6-1.8-14.9-5.2c-5-4-8.2-9.7-8.9-16.1c-1.5-13.1,8-25,21.1-26.5l28.2-3.2     c6.4-0.7,12.6,1.1,17.7,5c5,4,8.2,9.7,8.9,16.1c1.5,13.1-8,25-21.1,26.5l0,0l-28.2,3.2C34.2,51,33.2,51.1,32.3,51.1z M60.6,2.2     c-0.8,0-1.6,0-2.5,0.1L29.9,5.5C18,6.8,9.4,17.7,10.8,29.6C12.1,41.5,23,50.1,34.9,48.7l28.2-3.2C75,44.2,83.6,33.3,82.2,21.4     C80.9,10.4,71.5,2.2,60.6,2.2z M63.1,46.6L63.1,46.6L63.1,46.6z" style="fill:#6b6b6b;"/>
		</g>
	</g>
	<g>
		<g>
			<circle cx="10.5" cy="29.6" r="10.5" style="fill:#6b6b6b;"/>
		</g>
		<g>
			<circle cx="10.5" cy="29.6" r="4.4" style="fill:#FFFFFF;"/>
		</g>
	</g>
</g>

            </g>
        </g>
    </g>
    
    <!-- ITEM 9 -->
    <g>
        <defs>
            <clipPath id="clip-path-id-viewbox-item-9">
                <rect x="0.0" y="0.0" width="168.596" height="132.205"/>
            </clipPath>
        </defs>
        <g transform="translate(460.0 1061.0) rotate(0.0 156.0 122.5) scale(1.8505777124012432 1.853182557391929)">
            <g clip-path="url(#clip-path-id-viewbox-item-9)" transform="translate(-0.0 -0.0)">
                <title>wheelbarrow</title><g id="Layer_2-i9" data-name="Layer 2"><g id="wheelbarrow-i9"><path d="M168.561,69.705a1.419,1.419,0,0,0-.8-.9l-133.4-38.4a1.093,1.093,0,0,0-1,.2,1.284,1.284,0,0,0-.4,1l5.2,32.4c-11.2-9.5-13.5-25.9-15.4-39.3-1-7.1-1.9-13.3-4-17.3-2-3.9-4.7-6.3-8.1-7.1a11.89,11.89,0,0,0-9.4,1.9,2.908,2.908,0,0,0-.7,4.1,2.908,2.908,0,0,0,4.1.7,6.177,6.177,0,0,1,4.5-.9c1.6.4,3,1.8,4.2,4,1.6,3.2,2.4,8.8,3.4,15.4,2.2,15.5,5.2,36.7,22.7,46.8.1,0,.1.1.3.1.1.1.2.1.3.2l79.4,35.3a.6.6,0,0,0,.4.1,1.445,1.445,0,0,0,.7-.2l47.5-37A.932.932,0,0,0,168.561,69.705Z" fill="#8a8a8a"/><circle cx="82.461" cy="102.005" r="28.8" fill="#dae3ff"/><path d="M82.461,132.205a30.3,30.3,0,1,1,30.3-30.3A30.344,30.344,0,0,1,82.461,132.205Zm0-57.5a27.3,27.3,0,1,0,27.3,27.3A27.335,27.335,0,0,0,82.461,74.705Z" fill="#6b6b6b"/><path d="M62.861,111.005a3.428,3.428,0,0,1-3.4-2.6,23.9,23.9,0,0,1,23-30.4,3.5,3.5,0,1,1,0,7,16.772,16.772,0,0,0-16.8,16.8,18.158,18.158,0,0,0,.6,4.6,3.64,3.64,0,0,1-2.5,4.4A1.344,1.344,0,0,1,62.861,111.005Z" fill="#fff"/><circle cx="82.461" cy="102.005" r="10.6" fill="#6b6b6b"/><circle cx="82.461" cy="102.005" r="4.7" fill="#fff"/></g></g>
            </g>
        </g>
    </g>
    
    <!-- ITEM 10 -->
    <g>
        <defs>
            <clipPath id="clip-path-id-viewbox-item-10">
                <rect x="0.0" y="0.0" width="370.454" height="518.4"/>
            </clipPath>
        </defs>
        <g transform="translate(676.0 327.0) rotate(0.0 343.0 480.0) scale(1.8517818676542837 1.8518518518518519)">
            <g clip-path="url(#clip-path-id-viewbox-item-10)" transform="translate(-0.0 -0.0)">
                <title>stork_holding</title><g id="Layer_2-i10" data-name="Layer 2"><g id="stork_holding-i10"><path d="M58.254,61.5a.756.756,0,0,1-.4-.1,1.081,1.081,0,0,1-.7-1.4,110.024,110.024,0,0,1,30.4-43.3,1.134,1.134,0,0,1,1.5,1.7,109.266,109.266,0,0,0-29.8,42.3A.974.974,0,0,1,58.254,61.5Z" fill="#6b6b6b"/><path d="M274.254,216.2l36.8,271-15.5-2.7s-37.2-266-36.8-267.2S274.254,216.2,274.254,216.2Z" fill="#fff"/><polygon points="265.354 216.4 302.254 492.2 294.654 477.7 259.754 221 265.354 216.4" fill="#dae3ff"/><path d="M344.354,511.1l-31.3-16.9-21.4-157.9v-.4L275.354,216a1.16,1.16,0,0,0-2.3.3l.2,1.7c-1.5,1.2-2.8-5.7-8.6-4.1l-4.6,2a1.16,1.16,0,0,0-2.3.3l40.4,298.3c.1.4.4.9.9.9a147.138,147.138,0,0,0,16.8,2.5c3.2.3,6.2.4,9,.4,8.1,0,14.6-1.1,19.3-3.4a2.3,2.3,0,0,0,1.3-2A1.92,1.92,0,0,0,344.354,511.1Zm-56-86.9a30.012,30.012,0,0,0,6.5.7,41,41,0,0,0,6.5-.6l3.5,26c-2.5.5-8.2,1.3-13-.2Zm-15.7-116.7a30.525,30.525,0,0,0,6,.6,46.015,46.015,0,0,0,6.9-.6l3.8,27.8c-2.3.4-8.1,1.1-12.7-.2h-.3Zm8.6-31.8c-2.3.4-8.1,1.1-12.7-.1h-.2l-3.8-28.1a30.525,30.525,0,0,0,6,.6,36.43,36.43,0,0,0,6.9-.6Zm-6.6,2.8a35.214,35.214,0,0,0,6.8-.6l3.7,27.4c-2.2.4-8.1,1.1-12.8-.1h-.1l-3.7-27.3A33.13,33.13,0,0,0,274.654,278.5Zm8.2,59.6a36.069,36.069,0,0,0,6.8-.6l3.6,26.7c-2.3.4-8.3,1.3-12.7-.2h-.3l-3.6-26.5A26.08,26.08,0,0,0,282.854,338.1Zm3.7,29.1a50.551,50.551,0,0,0,7-.6l3.6,26.7c-2,.4-7.8,1.5-12.9-.1h-.1l-3.6-26.5A40.473,40.473,0,0,0,286.554,367.2Zm4,28.9a32.8,32.8,0,0,0,6.8-.7l3.6,26.7a30.455,30.455,0,0,1-12.8-.2h-.2l-3.6-26.4A35.038,35.038,0,0,0,290.554,396.1Zm-15-162.2,1.5,11.2c-2.2.4-8,1.1-12.7-.1C265.354,242.5,268.554,235.7,275.554,233.9Zm20.2,244.1-3.5-25.5a25.158,25.158,0,0,0,6,.7,37.939,37.939,0,0,0,7-.7l3.5,25.6A30.574,30.574,0,0,1,295.754,478Z" fill="#6b6b6b"/><path d="M295.654,477.9l4.8,35.7c.9.2,2.4.5,4.4.8l-4.5-35.7Z" fill="#fff"/><path d="M161.054,108.5c-2.3.6-3.9-3.1-9-3.2-10-.1-2.5,16.6,7.3,29.9s28.5,40.1,40,34.9c3.1-1.4,8.6-7.8,5.6-23.9s-14.7-39.7-27.5-34C177.454,112.1,168.854,106.3,161.054,108.5Z" fill="#fff"/><path d="M206.054,145.9a77.125,77.125,0,0,0-6.9-19.9c-2.6-5-6.8-11.6-12.3-14.4a10.833,10.833,0,0,0-9.9-.4h-.1a19.411,19.411,0,0,0-16-3.8c-2.6-2.1-5.6-3.5-8.9-3.2-3.2.3-4.6,1.9-5.2,3.2-1.2,2.7-.5,7,2,12.6a87.875,87.875,0,0,0,9.6,15.8c.7,1,1.5,2.1,2.4,3.2,9.9,13.3,24.2,32.8,35.4,32.8a8.627,8.627,0,0,0,3.6-.8C200.854,170.5,209.854,165.8,206.054,145.9Zm-7.1,23c-4.2,1.9-10.1-1-17.7-8.6-6.7-6.7-13.6-16-18.6-22.7-.8-1.1-1.6-2.2-2.4-3.2-8.7-11.6-13.3-22.1-11.4-26.1.5-1.2,1.6-1.8,3.3-1.9,9.1-.8,16,14.6,16.1,14.8a1.142,1.142,0,1,0,2.1-.9,44.231,44.231,0,0,0-7.3-11c6-.7,11.3,1.6,15.7,6.7a31.761,31.761,0,0,1,5.3,9.1,1.053,1.053,0,0,0,1,.8.367.367,0,0,0,.3-.1,1.081,1.081,0,0,0,.7-1.4,34.5,34.5,0,0,0-5.7-9.8c-.6-.6-1.1-1.2-1.7-1.8a9.117,9.117,0,0,1,7,.7c8.2,4.3,15.7,20,18.1,32.8C207.354,164.9,199.254,168.8,198.954,168.9Z" fill="#6b6b6b"/><path d="M313.254,156s-.4-21.2-19.4-40.5c-14.1-14.4-32.4-17.3-40.9-17.8a134.162,134.162,0,0,0-5.5-18.1c-5.2-14-14.7-34.2-30.7-50.9a93.932,93.932,0,0,0-26.8-19.8,77.858,77.858,0,0,0-34.2-7.8h-.3c-38,.1-68.7,22.6-88.7,65-14.4,30.7-18.2,60.9-18.4,62.2a9.883,9.883,0,0,0,8.6,11c.4,0,.8.1,1.2.1a9.917,9.917,0,0,0,9.8-8.7c0-.3,3.6-28.7,16.8-56.5,16.7-35.2,40.5-53.1,70.7-53.2h.2c17.4,0,33.1,7.2,46.8,21.5,15.3,15.9,25.5,38.1,30.5,57-25.5,6.4-45.7,28.3-48,43.5-2.7,18.1-4.2,54.2,24.7,72.8s57.3,15,80.7-3.1C314.054,194.5,313.254,156,313.254,156Z" fill="#fff"/><polygon points="232.854 228 199.054 489.6 185.454 477.7 220.154 214.4 232.854 228" fill="#fff"/><polygon points="189.154 481 224.154 218.7 220.154 214.4 185.454 477.7 189.154 481" fill="#dae3ff"/><path d="M234.054,218.6a1.13,1.13,0,0,0-1.3,1l-33.5,258.5a28.8,28.8,0,0,1-12.8,0l33.4-258.2a1.16,1.16,0,1,0-2.3-.3l-35.5,274.7-30.9,16.6a2.485,2.485,0,0,0-1.3,2.2,2.313,2.313,0,0,0,1.4,2.1c5.3,2.4,12.2,3.2,19.1,3.2a128.446,128.446,0,0,0,25.6-2.9,1.352,1.352,0,0,0,.9-.9l38.2-294.7A1.146,1.146,0,0,0,234.054,218.6Z" fill="#6b6b6b"/><path d="M183.654,495.9l-30,16.1c7.4.8,25.2-9.3,31-12.8a4.527,4.527,0,0,0,2.2-3.4l2.5-17.4-2.9-.6-2.2,17.1C184.154,495.5,184.054,495.8,183.654,495.9Z" fill="#fff"/><path d="M197.154,453.2a43.228,43.228,0,0,1-8.5-1,1.14,1.14,0,0,1,.6-2.2c.1,0,8.2,2.1,14.5,0a1.107,1.107,0,1,1,.7,2.1A23.11,23.11,0,0,1,197.154,453.2Z" fill="#6b6b6b"/><path d="M200.354,424.9a29.6,29.6,0,0,1-7.7-.9,1.14,1.14,0,0,1,.6-2.2h0a30.522,30.522,0,0,0,13.7,0,1.14,1.14,0,0,1,.6,2.2A31.5,31.5,0,0,1,200.354,424.9Z" fill="#6b6b6b"/><path d="M204.054,396.1a35.156,35.156,0,0,1-7.9-1,1.14,1.14,0,1,1,.6-2.2c.1,0,7.4,2.1,13.6,0a1.107,1.107,0,0,1,.7,2.1A19.311,19.311,0,0,1,204.054,396.1Z" fill="#6b6b6b"/><path d="M208.654,367.2a36.963,36.963,0,0,1-8.2-.9,1.079,1.079,0,1,1,.5-2.1c.1,0,8.1,1.8,13.7,0a1.107,1.107,0,0,1,.7,2.1A25.17,25.17,0,0,1,208.654,367.2Z" fill="#6b6b6b"/><path d="M212.354,338.1a37.491,37.491,0,0,1-8-.8,1.118,1.118,0,0,1,.4-2.2c.1,0,7.8,1.6,13.7,0a1.14,1.14,0,1,1,.6,2.2A21.6,21.6,0,0,1,212.354,338.1Z" fill="#6b6b6b"/><path d="M215.654,308.1a37.491,37.491,0,0,1-8-.8,1.118,1.118,0,0,1,.4-2.2c.1,0,7.8,1.6,13.7,0a1.14,1.14,0,0,1,.6,2.2A25.091,25.091,0,0,1,215.654,308.1Z" fill="#6b6b6b"/><path d="M219.554,278.5a37.491,37.491,0,0,1-8-.8,1.118,1.118,0,0,1,.4-2.2c.1,0,7.8,1.6,13.7,0a1.14,1.14,0,0,1,.6,2.2A25.091,25.091,0,0,1,219.554,278.5Z" fill="#6b6b6b"/><path d="M223.754,247.9a37.491,37.491,0,0,1-8-.8,1.118,1.118,0,0,1,.4-2.2c.1,0,7.8,1.6,13.7,0a1.14,1.14,0,1,1,.6,2.2A25.091,25.091,0,0,1,223.754,247.9Z" fill="#6b6b6b"/><path d="M230.154,249.3h0a1.049,1.049,0,0,1-1.1-1.1q-.15-10.35-4.8-13.8a8.589,8.589,0,0,0-6.8-1.3,1.1,1.1,0,0,1-1.4-1.2l1.6-12.4a1.068,1.068,0,0,1,.7-.9.913.913,0,0,1,1.1.2l6.6,5.5,7.2,2.7a1.086,1.086,0,0,1,.7,1.2l-2.7,20.2A1.088,1.088,0,0,1,230.154,249.3Z" fill="#6b6b6b"/><path d="M269.054,100.9a251.522,251.522,0,0,1,13.3-30.6c8.1-15.5,15.2-22.3,23-18.7,7.8,3.5,4.6,16.9,4.6,16.9s9.2-10.6,16.5-5.1,1.4,17.7-3,22.5c0,0,12.8,2.8,6.1,14.9-6.8,12.1-26.9,25.4-26.9,25.4A59.215,59.215,0,0,0,269.054,100.9Z" fill="#fff"/><path d="M331.054,89.5a10.556,10.556,0,0,0-5.9-4.2,38.127,38.127,0,0,0,3.8-7.2c2.5-6.5,2.1-11.7-1.4-15.1-2.1-2-5.8-3.6-12.1-.1-1.5.9-2.9,1.9-4,2.7.3-3.3.3-8.6-2.3-12.2a9.371,9.371,0,0,0-6.9-3.9c-6.8-.8-14.7,7.7-23.4,25.1a273.9,273.9,0,0,0-10.9,25.9,1.107,1.107,0,0,0,2.1.7c4.9-14.2,20.1-50.9,31.9-49.5a6.866,6.866,0,0,1,5.3,3c2.9,4.1,1.9,11.2,1.5,13.1a80.12,80.12,0,0,0-7.7,5.4c-5.6,4.5-8.4,8.3-8.4,11.5,0,1.3.6,3.2,3.1,4.7a6.939,6.939,0,0,0,3.5,1,5.834,5.834,0,0,0,2.6-.6c6.3-3.2,8.6-18,8.9-20.8,1.6-1.5,10.2-9.1,15-4.4,6.2,6-1.7,18.1-3.3,20.3-1.8.3-7.7,1.4-10.8,5.4a9.431,9.431,0,0,0-1.9,7.2c.3,2,1.2,2.6,1.9,2.8h.4c1.3,0,3.3-1.1,7.4-6.9,1.8-2.5,3.4-5,4.1-6.2a8.7,8.7,0,0,1,5.3,3.4c1.2,1.9,1.2,4.5.1,7.7-3.6,10.3-27.3,26.8-27.5,27a1.151,1.151,0,0,0,.6,2.1,1.421,1.421,0,0,0,.6-.2c1-.7,24.5-17.1,28.3-28.1C332.754,95.2,332.654,92,331.054,89.5Zm-30.1-1.7a4.143,4.143,0,0,1-4-.3c-1.3-.8-2-1.7-2-2.8,0-2.3,2.7-5.7,7.5-9.7,2.2-1.7,4.3-3.2,5.9-4.2C307.454,76.3,305.054,85.8,300.954,87.8Zm11.5,10.2c0-.1-.1-.3-.2-.8a6.9,6.9,0,0,1,1.4-5.5c1.9-2.4,5.2-3.6,7.4-4.1C317.454,93.3,313.754,97.9,312.454,98Z" fill="#6b6b6b"/><path d="M220.654,211.2c-29-18.6-27.5-54.7-24.7-72.8,1.8-12.2,15.2-28.7,33.6-38-23.7,7.5-42.2,28-44.4,42.4-2.7,18.1-4.2,54.2,24.7,72.8,23.9,15.3,47.3,15.6,67.9,5C260.054,226.2,240.454,223.9,220.654,211.2Z" fill="#dae3ff"/><path d="M249.954,86.6c-.7-2.4-1.5-4.7-2.4-7-5.2-14-14.7-34.2-30.7-50.9a93.932,93.932,0,0,0-26.8-19.8,77.858,77.858,0,0,0-34.2-7.8h-.3c-38,.1-68.7,22.6-88.7,65a223.263,223.263,0,0,0-14.9,43.6l8.2.7s9-56.1,47.3-86.2,90.7-19.8,117.5,26.4C239.254,75.2,245.954,84.1,249.954,86.6Z" fill="#dae3ff"/><path d="M221.354,199.9a1.854,1.854,0,0,1-.7-.2,19.424,19.424,0,0,1-7.5-15.5,1.11,1.11,0,0,1,1.1-1.1h0a1.135,1.135,0,0,1,1.1,1.2,16.815,16.815,0,0,0,6.6,13.6,1.127,1.127,0,0,1,.2,1.6A.894.894,0,0,1,221.354,199.9Z" fill="#dae3ff"/><path d="M230.254,201.3a.6.6,0,0,1-.4-.1,15.2,15.2,0,0,1-9-11.5,1.118,1.118,0,1,1,2.2-.4,12.881,12.881,0,0,0,7.6,9.7,1.142,1.142,0,0,1,.6,1.5A1.021,1.021,0,0,1,230.254,201.3Z" fill="#dae3ff"/><path d="M297.354,168.4s16.3,11.2,6.1,29.5c0,0,9.6-16.2,9.9-28.6Z" fill="#6D6D6D"/><path d="M314.454,169.3h0c.2-2.1.3-4.3.3-6.5a66.455,66.455,0,0,0-32.3-56.9l-.1-.1a20.521,20.521,0,0,0-3.5-1.9,64.821,64.821,0,0,0-24.8-7.2,158.566,158.566,0,0,0-5.4-17.5c-5.2-14.1-14.8-34.4-31-51.3a93.128,93.128,0,0,0-27.2-20,80.108,80.108,0,0,0-34.7-7.9h-.3c-38.5.1-69.5,22.8-89.7,65.6a212.957,212.957,0,0,0-14,39.8h0c-1,4-1.8,7.7-2.5,10.8h0c-1.4,6.9-1.9,11.4-2,11.8a11.005,11.005,0,0,0,9.6,12.2c.4,0,.9.1,1.3.1a10.933,10.933,0,0,0,10.9-9.7c0-.1.4-3.6,1.6-9.3l5.5-21.7a182.072,182.072,0,0,1,9.7-25.2c16.5-34.8,39.9-52.5,69.7-52.6h.2c17,0,32.5,7.1,46,21.2,14.9,15.5,24.9,36.9,30,55.4a66.3,66.3,0,1,0,72.4,100l.2-.2a2.767,2.767,0,0,1,.4-.7,67.523,67.523,0,0,0,7.5-16.9A41.632,41.632,0,0,0,314.454,169.3Zm-66.1,57.6a64.131,64.131,0,0,1-16.1-126.2c2.5,9.8,3.7,18.6,3.4,25.1a1.151,1.151,0,0,0,2.3.1c.8-19.4-10.7-59.4-34.6-84.3-13.9-14.5-29.9-21.9-47.6-21.9h-.2c-30.6.1-54.7,18.2-71.7,53.9a183.1,183.1,0,0,0-9.7,25.3c-7.3,10.1-17.1,7.2-20,6.1a213.337,213.337,0,0,1,13.6-38.4c19.8-42,50.1-64.2,87.6-64.4h.3a77.011,77.011,0,0,1,33.7,7.7,93.818,93.818,0,0,1,26.5,19.6c15.9,16.6,25.4,36.6,30.5,50.5,6.3,17,9.5,34,9,46.7a1.292,1.292,0,0,0,.9,1.2h0c.3,0,.7.1,1,.1,4.7,0,7.5-5.5,10.3-10.8,2.4-4.6,4.9-9.4,8.3-10.4a6.018,6.018,0,0,1,4.6.7,64.247,64.247,0,0,1,31.9,55.4c0,1.8-.1,3.5-.2,5.3l-14.9-.8a1.126,1.126,0,0,0-1.1.7,1.249,1.249,0,0,0,.4,1.3,24.328,24.328,0,0,1,6.6,7.6c3.4,6.2,3.2,13-.6,20.1A64.273,64.273,0,0,1,248.354,226.9Z" fill="#6b6b6b"/><path d="M356.754,127.6c1.8,1.5,4.9-1.3,9.5.7,9.2,4-4.5,16.2-18.9,24.3-14.4,8-42.4,25-50.8,15.5-2.3-2.6-4.7-10.6,4.7-24.1,9.3-13.4,29.7-30.2,39-19.8C340.354,124.2,350.554,122.5,356.754,127.6Z" fill="#fff"/><path d="M366.854,127.3a12.279,12.279,0,0,0-9.4-.7,19.114,19.114,0,0,0-16.1-3.1v-.1a11.015,11.015,0,0,0-9.2-3.6c-6.2.4-12.7,4.6-17.1,8.1a77.031,77.031,0,0,0-14.4,15.3c-11.6,16.7-5.3,24.6-4.6,25.5,2,2.3,4.9,3.2,8.4,3.2,11.1,0,28.1-9.6,40.3-16.5,1.2-.7,2.4-1.3,3.5-1.9,5.2-2.9,22.2-13.1,22.2-21.2A6.487,6.487,0,0,0,366.854,127.3Zm-20,24.3c-1.1.6-2.2,1.3-3.5,1.9-7.3,4.1-17.3,9.8-26.2,13.2-10,3.8-16.6,4-19.7.6-.3-.3-6-7.2,4.7-22.7,7.4-10.6,20.6-22,29.9-22.5a9.089,9.089,0,0,1,6.7,2.2c-.7.3-1.5.6-2.3,1a31.452,31.452,0,0,0-9.1,6.6,1.122,1.122,0,0,0,.1,1.6,1.08,1.08,0,0,0,.7.3.909.909,0,0,0,.8-.4,33.9,33.9,0,0,1,8.5-6.2q9.15-4.35,17.1.3a42.379,42.379,0,0,0-11.1,7,1.134,1.134,0,0,0,1.5,1.7c.1-.1,12.8-11.3,20.7-6.9a3.552,3.552,0,0,1,2.2,3.1C367.954,136.8,359.454,144.6,346.854,151.6Z" fill="#6b6b6b"/><circle cx="49.676" cy="145.919" r="31.7" fill="#fff"/><circle cx="55.255" cy="141.435" r="16.8" fill="#fff"/><path d="M55.254,159.3a17.9,17.9,0,1,1,17.9-17.9A17.882,17.882,0,0,1,55.254,159.3Zm0-33.6a15.6,15.6,0,1,0,15.6,15.6A15.62,15.62,0,0,0,55.254,125.7Z" fill="#6b6b6b"/><circle cx="55.255" cy="141.435" r="11.2" fill="#6b6b6b"/><circle cx="58.254" cy="135.4" r="6" fill="#fff"/><path d="M58.554,188.3c1.6-21.5-11.4-24.9-11.4-24.9l-8.5,24.9Z" fill="#dae3ff"/><path d="M21.554,160.8s-2.4,3.4-4.9,22.4.5,36.8,4.2,36.8,25.6-38.1,26.2-56.5C47.154,163.4,37.054,156.9,21.554,160.8Z" fill="#dae3ff"/><path d="M82.554,145.9a32.819,32.819,0,0,0-32.8-32.8c-1.2,0-2.4.1-3.6.2a18.785,18.785,0,0,0-.1-12.6c-1.2-3.1-3.1-3.8-4.4-3.8a7.033,7.033,0,0,0-4,1.8c-1.8,1.4-2.6,1.9-3.8,1s-2.2-3.6-3.2-6.1c-1.7-4.1-3.4-8.4-6.6-8-3.7.6-4.5,5-5.2,8.7-.4,2.1-.9,4.7-1.8,5-1.6.5-3.7-2.5-5.6-5.2-2.2-3.1-4.4-6.1-6.9-6.3a3.971,3.971,0,0,0-3.1,1.2c-1.9,1.8-3.4,6.9,5.4,31.4,4.2,11.7,9,23,10.1,25.5v.1a33.264,33.264,0,0,0,3.5,14.8c-.8,1.6-2.8,7-4.8,22.2-2,15.5-.5,32.7,3.2,37a2.756,2.756,0,0,0,2.1,1.1c.6,0,2,0,6.5-6.7a164.032,164.032,0,0,0,8.7-15.2c1.3-2.5,3.1-6.3,5-10.8h9.4c1.7-11.9-1-19.7-2.6-23v-.2c3.1,1.5,10.5,7,9.3,23.2h2.3a38.2,38.2,0,0,0-.6-10.9A33.092,33.092,0,0,0,82.554,145.9Zm-48,51.5c-6.2,12.4-12.1,20.7-13.7,21.4-.1,0-.2-.1-.4-.3-2.6-2.9-4.9-18.1-2.7-35.2,2-15.3,4-20.3,4.6-21.5,12.6-3,21.4,1.2,23.6,2.4C45.454,171.8,41.354,183.8,34.554,197.4Zm24-22.2a23.428,23.428,0,0,0-2.8-6.2,16.379,16.379,0,0,0-8.1-6.6c-1.3-.8-10.9-6.3-25.4-2.9a30.449,30.449,0,0,1-3.1-12h.1a1.952,1.952,0,0,0,.7-.1c2.2-.6,3.9-3.7,5.3-9.7,1.9-8.4,5.8-14.9,11.3-18.7a23.559,23.559,0,0,1,4-2.2,31.047,31.047,0,0,1,9.2-1.4,30.538,30.538,0,0,1,8.8,59.8Z" fill="#6b6b6b"/></g></g>
            </g>
        </g>
    </g>
    
    <!-- ITEM 11 -->
    <g>
        <defs>
            <clipPath id="clip-path-id-viewbox-item-11">
                <rect x="0.0" y="0.0" width="196.577" height="237.008"/>
            </clipPath>
        </defs>
        <g transform="translate(119.0 865.0) rotate(0.0 181.5 219.5) scale(1.846604638385976 1.8522581516235739)">
            <g clip-path="url(#clip-path-id-viewbox-item-11)" transform="translate(-0.0 -0.0)">
                <title>animal</title><g id="Layer_2-i11" data-name="Layer 2"><g id="animal-i11"><path d="M116.162,227.407a11.45,11.45,0,0,1,3.8,2.7,4.929,4.929,0,0,1,1.5,4.3.908.908,0,0,1-.3.7,1.344,1.344,0,0,1-.9.2c-7.4,0-14.6-1.7-21.8-3.4-2.7-.6-5.5-1.3-8.2-1.9a138.318,138.318,0,0,1-15.6-4.3c4.2-.2,8.2-1.9,12.1-3.5,2.7-1.1,5.3-2.4,7.9-3.4s4.1.1,6.6,1.2C106.262,222.307,111.262,224.807,116.162,227.407Z" fill="#fff"/><path d="M131.262,210.207c.9.2,2.1.6,2.3,1.6.3,1.3-1.5,2.1-2.9,2.3a167.167,167.167,0,0,1-30,1.5c1.5,0,5.6-4.9,6.8-5.9,1.9-1.7,2.9-2.9,5.6-2.7A165.229,165.229,0,0,1,131.262,210.207Z" fill="#fff"/><path d="M25.362,172.907s-18.2-12.2-23-8.1c-4.8,4.2,19.9,30.7,29.9,38.7s2.8-20.6,2.8-20.6Z" fill="#fff"/><path d="M88.662,28.307s-18.9,2.8-23.1,23.8,6.5,32.9.5,51a92.048,92.048,0,0,1-24.4,38.6c-8.5,7.9-19.8,23.3-15.7,47.4s31.7,37.3,47,36.4,36.5-13.1,43.3-26.1,9.2-32.8,8.2-51.6c0,0,19-2.8,29.5-9.3s28-20.5,29.2-21.1c1.3-.6,16.5-3.5,10.3-9.7s-12.9,4.5-33,8c-20.2,3.5-40.8-.4-48.2-4.8,0,0-5.3-14.3,3.3-19.6,0,0,14.1-6.2,14.4-15.4l-2-31.4C127.862,44.607,117.162,22.107,88.662,28.307Z" fill="#dae3ff"/><path d="M81.462,187.207a1.086,1.086,0,0,1-.9-.4,1.127,1.127,0,0,1,.2-1.6,16.872,16.872,0,0,0,6.3-13.7,1.151,1.151,0,1,1,2.3-.1,19.04,19.04,0,0,1-7.2,15.6A1.445,1.445,0,0,1,81.462,187.207Z" fill="#fff"/><path d="M78.862,196.707a1.087,1.087,0,0,1-1-.7,1.231,1.231,0,0,1,.7-1.5c9-3.4,10.6-9.7,10.6-10a1.118,1.118,0,1,1,2.2.4c-.1.3-1.8,7.8-12,11.6A.646.646,0,0,1,78.862,196.707Z" fill="#fff"/><path d="M112.862,111.307s-4.3-11.1,0-17.3h-.2c-2.4.7-4.8,3.2-6.5,5a10.134,10.134,0,0,0-2.7,4.1,4.7,4.7,0,0,0,.9,4.7,8.259,8.259,0,0,0,2.2,1.4,19.211,19.211,0,0,0,6.9,2.2C112.962,111.207,113.262,111.507,112.862,111.307Z" fill="#fff"/><path d="M106.262,145.507c.3,9.9,1.6,20-1.1,29.6-2.6,9.3-8.7,17.2-15.3,24.2-4.3,4.6-9.2,10.9-6.2,16.4,1.5,2.8,4.4,4.1,7.6,4.7,10.7-4.9,20.8-12.8,25-21.1,6.8-13,9.2-32.8,8.2-51.6C124.362,147.807,106.762,145.707,106.262,145.507Z" fill="#fff"/><polygon points="134.162 56.207 116.762 64.707 129.762 75.307 160.362 55.807 134.162 56.207" fill="#fff"/><polygon points="116.862 65.507 127.862 44.607 155.462 46.507 116.862 65.507" fill="#fff"/><circle cx="96.762" cy="52.207" r="16.8" fill="#fff"/><path d="M96.762,70.107a17.631,17.631,0,0,1-7.4-1.6,17.926,17.926,0,1,1,23.7-9,17.753,17.753,0,0,1-10,9.4A17.19,17.19,0,0,1,96.762,70.107Zm0-33.5a15.647,15.647,0,0,0-6.5,29.9,16.075,16.075,0,0,0,12,.4,15.566,15.566,0,0,0,8.7-8.2h0a16.075,16.075,0,0,0,.4-12,15.566,15.566,0,0,0-8.2-8.7A14.82,14.82,0,0,0,96.762,36.607Z" fill="#6b6b6b"/><circle cx="96.762" cy="52.207" r="11.2" fill="#6b6b6b"/><circle cx="101.962" cy="48.007" r="6" fill="#fff"/><path d="M196.562,109.907a3.654,3.654,0,0,0-1.9-2.7c-2.7-1.6-7.7-1.6-12.8.1-2.1.7-4.6,1.6-7.3,2.6-9,3.3-20.3,7.4-28.7,7.6h-.5c-8.8,0-21.6-3.6-31-6.7a.367.367,0,0,0-.1-.3,25.958,25.958,0,0,1-1.7-7.8c-.3-5.5,1.5-9.3,5.3-11.5,10.8-6.2,12.7-12.4,13-14.4l30.1-19.1h0l.1-.1h0l.1-.1v-.1a.1.1,0,0,1,.1-.1v-.6h0v-.2h0v-.2a.1.1,0,0,0-.1-.1v-.1a.1.1,0,0,0-.1-.1h0a.1.1,0,0,1-.1-.1h-.7l-19.6-.6,15.1-7.4a1.141,1.141,0,0,0,.6-1.2,1.063,1.063,0,0,0-1-.9l-27-1.8a50.931,50.931,0,0,0-10.4-10.8,33.716,33.716,0,0,0-18.1-7.1h-.1c-.1,0-7.1-1.2-11.6-13.4-2.9-7.9-6.6-12.5-10.2-12.7a3.741,3.741,0,0,0-3.7,2.4c-2.1,4.4.3,18.1,4.8,23.1-2.9.6-8.8.7-15.5-5.2-5.8-5.1-9-4.7-10.5-4a4.121,4.121,0,0,0-2.2,3.9c0,1.8,1.2,5,3.6,8a22.288,22.288,0,0,0,7.2,5.7c-4.4.4-9.3,1.5-9.5,4.9a4.524,4.524,0,0,0,1.5,3.8c2.9,2.7,9.5,2.3,12.7,1.9a30.543,30.543,0,0,0-1.3,3.2c-2.8,8.6-1.8,18.6-.9,28.3.1,1.5.3,3.1.4,4.6.1.9.2,1.9.3,2.8,1.7,17.5,2.8,29.1-24.3,57.9-10.2,10.9-14.7,21.4-16.3,30.2-4.4-2.7-17-9.7-22.6-7.2a2.706,2.706,0,0,0-1.6,2c-.4,2.2.9,6.2,10.5,17.4,0,.1.1.1.1.2,1,1.1,2,2.2,2.9,3.3a87.046,87.046,0,0,0,7.1,7.6q3.9,4.05,8.7,9c1.3,1.3,2.3,2.4,2.9,3a48.935,48.935,0,0,0,11.4,11.3,44.138,44.138,0,0,0,25.6,8.8c1,.3,12.7,3.5,24.6,6.3,7.3,1.7,13.3,2.8,17.8,3.4a46.668,46.668,0,0,0,5.7.4c3.3,0,4.4-.7,4.9-1.4a2.555,2.555,0,0,0,.4-2.4c-1.4-5.1-18.6-12.7-24-15a12.774,12.774,0,0,0,1.5-1c.8,0,3.2.1,6.2.1,2.8,0,6.3,0,9.8-.1,15.1-.5,17.7-2.2,18.1-3.9a2.273,2.273,0,0,0-.3-1.8c-.7-1-2.9-2.7-13-4.1-3.2-.5-6.3-.8-8.3-1a7.062,7.062,0,0,0,.8-1c5.3-6.7,8.9-15.8,10.8-27.2a117.228,117.228,0,0,0,1.3-24.3,82.671,82.671,0,0,0,30.2-10.6,93.989,93.989,0,0,0,20.5-17.1c3.7-3.8,6.7-7,10.2-8.6,3.7-.9,6.3-2.2,8-3.9C196.262,112.007,196.662,110.607,196.562,109.907Zm-178.2,70.5a5.265,5.265,0,0,1-5.7,1.4c-9.6-11.1-10.2-14.6-10-15.5,0-.2.1-.3.3-.4,3.5-1.5,11.8,2.3,17.6,5.5A9.153,9.153,0,0,1,18.362,180.407Zm136.4-121.5-24.7,15.8-10.6-8.5Zm-26.2-13.1,22.7,1.5-31.8,15.6Zm-19.8,179.1c10.3,5.2,11.9,7.7,12.1,8.5.1.2,0,.3,0,.4-.2.2-2.5,2.2-26.2-3.2-1.1-.3-2.2-.5-3.2-.7v-.2c-1.7-5.8,4.6-9.1,6.3-9.9C99.062,220.407,103.862,222.407,108.762,224.907Zm5.3-14.9.1-.2a5.171,5.171,0,0,0,.6-1.3c1.9.2,4.2.5,6.6.8,9.2,1.4,10.8,2.8,11,3.1-1,1.1-8.2,2.1-19.4,2.4C112.562,213.307,112.862,212.007,114.062,210.007Zm8.3-32.5c-1.9,11-5.3,19.8-10.4,26.2a59.165,59.165,0,0,1-21.9,16.5c-4.9,1.6-9.1,2.8-11.9,3.6a42.555,42.555,0,0,1-32.7-7.8,46.992,46.992,0,0,1-18-25.8,43.377,43.377,0,0,1,0-21.4c5-6.8,10.7-13.3,18.6-15.8,4.9-1.6,10.3-1.5,14.6-4.1,6-3.6,8.4-11.3,8.4-18.3s-2-13.9-2.2-20.9c0-1.5,0-2.8.1-4.1.3-1,.5-2.1.7-3.1a14.451,14.451,0,0,1,5.4-7.1c2.9-2.2,6.8-2.8,10.3-3.9s7.3-3.1,8.3-6.6c1.1-3.8-1.3-7.7-4.1-10.5-3.4-3.4-7.4-6.2-10.8-9.5-3.4-3.4-11.8-9.4-8.8-18.1h0c2.9-7.5,9.3-13.6,22-17.5,9.2-2.8,18.2-1,26.7,5.5a47.442,47.442,0,0,1,9.9,10.2l-10.8,20.3v.1h0c0,.1,0,.1-.1.3h0v.4h0c0,.1.1.1.1.3h0a.1.1,0,0,0,.1.1h.1l12.5,10.2c-.3,1.6-2.1,7.1-11.8,12.7-4.5,2.6-6.8,7.3-6.4,13.6a38.025,38.025,0,0,0,1.3,7.1c-5.7-1.9-9.6-3.5-9.7-3.5a1.142,1.142,0,1,0-.9,2.1c1.2.4,28.4,11.3,44.2,11.3h.5c8.7-.1,20.2-4.3,29.4-7.7,2.6-1,5.1-1.9,7.2-2.6,5.1-1.7,9.3-1.3,10.9-.3a1.377,1.377,0,0,1,.8,1c0,.8-1.6,3.4-8,5-4.7,1.2-8.5,4.4-13.2,8.5-5.1,4.4-11.4,9.9-21.5,14.9-14.9,7.3-34.3,9.7-46.4,5.9a1.107,1.107,0,0,0-.7,2.1,45.147,45.147,0,0,0,13.8,1.9c1.6,0,3.2-.1,4.9-.2A92.079,92.079,0,0,1,122.362,177.507Z" fill="#6b6b6b"/></g></g>
            </g>
        </g>
    </g>
    
    <!-- ITEM 12 -->
    <g>
        <defs>
            <clipPath id="clip-path-id-viewbox-item-12">
                <rect x="0.0" y="0.0" width="205.3" height="67.4"/>
            </clipPath>
        </defs>
        <g transform="translate(117.0 297.0) rotate(0.0 190.0 62.0) scale(1.8509498295177789 1.8397626112759642)">
            <g clip-path="url(#clip-path-id-viewbox-item-12)" transform="translate(-0.0 -0.0)">
                

<g>
	<path d="M178.6,64.1L30.3,46.7c-12.5-1.5-21.5-12.8-20-25.3l0,0c1.5-12.5,12.8-21.5,25.3-20l148.3,17.4   c12.5,1.5,21.5,12.8,20,25.3l0,0C202.5,56.6,191.1,65.6,178.6,64.1z" style="fill:#6D6D6D;"/>
	<g>
		<path d="M205.2,41.8c0.1-5.6-1.7-10.9-5.2-15.3c-4-5-9.7-8.2-16-9L35.7,0.2c-6.3-0.7-12.6,1-17.7,5s-8.2,9.7-9,16    c-0.2,1.5-0.2,2.9-0.1,4.3c-0.1,5.6,1.7,10.9,5.2,15.4c4,5,9.7,8.2,16,9l148.3,17.4l0,0c0.9,0.1,1.9,0.1,2.8,0.1    c6.2,0,12.2-2.4,16.7-6.8c3.9-3.8,6.4-8.9,7.1-14.4C205.3,44.8,205.3,43.3,205.2,41.8z M11.4,23.6c0.7-5.8,3.5-10.9,8.1-14.5    s10.2-5.2,16-4.6l148.3,17.4c5.8,0.7,10.9,3.5,14.5,8.1c2.7,3.5,4.3,7.6,4.6,11.9c0,0.7-0.1,1.4-0.1,2.1    c-1.4,11.9-12.2,20.5-24.1,19.1L30.4,45.6c-5.8-0.7-10.9-3.5-14.5-8.1c-2.7-3.5-4.3-7.6-4.6-11.9C11.3,25,11.3,24.3,11.4,23.6z" style="fill:#6b6b6b;"/>
		<path d="M202.9,45.9c0.7-5.8-0.9-11.5-4.6-16c-3.6-4.6-8.8-7.4-14.5-8.1L35.5,4.5c-5.8-0.7-11.5,0.9-16,4.6    c-4.6,3.6-7.4,8.8-8.1,14.5C10,35.5,18.6,46.3,30.5,47.7l148.3,17.4c6.5,0.7,13-1.4,17.7-6C200,55.5,202.3,50.9,202.9,45.9z" style="fill:#FFFFFF;"/>
	</g>
	<g>
		<g>
			<path d="M32.7,16.9l11.5,1.3l-0.4,3.2l-8-0.9L35.3,25l7.4,0.9l-0.4,3.2l-7.4-0.9L34,35.5l-3.5-0.4L32.7,16.9z" style="fill:#6b6b6b;"/>
		</g>
		<g>
			<path d="M56.9,19.7l3.4,0.4L59,31.7c-0.1,1.2-0.4,2.2-0.8,3s-0.9,1.5-1.6,2c-0.6,0.5-1.3,0.8-2.2,1s-1.7,0.2-2.6,0.1     c-2.2-0.3-3.8-1-4.8-2.2c-0.9-1.2-1.3-2.9-1-5l1.4-12l3.5,0.4l-1.3,11.3c-0.1,1.4,0,2.4,0.4,3.1c0.4,0.7,1.2,1.1,2.2,1.2     s1.8-0.1,2.4-0.7c0.5-0.6,0.9-1.6,1-2.9L56.9,19.7z" style="fill:#6b6b6b;"/>
		</g>
		<g>
			<path d="M65.5,28.3h-0.1l-0.1,2.2l-1,8.5l-3.4-0.4L63,20.5l3.1,0.4l5,11.8h0.1v-2.2l1-8.9l3.4,0.4l-2.1,18.1     l-3.1-0.4L65.5,28.3z" style="fill:#6b6b6b;"/>
		</g>
		<g>
			<path d="M87.2,35.5l2.8,0.3L89.4,41c-0.6,0.3-1.3,0.6-2.2,0.7c-0.9,0.1-1.8,0.1-2.7,0c-1.1-0.1-2.2-0.4-3.2-0.9     c-1-0.4-1.8-1.1-2.5-1.9c-0.7-0.9-1.2-1.9-1.5-3.1c-0.3-1.3-0.4-2.7-0.2-4.4c0.2-1.8,0.6-3.2,1.3-4.4c0.7-1.1,1.5-2,2.4-2.7     c0.9-0.6,1.9-1,2.9-1.3c1-0.2,2.1-0.2,3.1-0.1c1,0.1,1.9,0.3,2.6,0.6c0.7,0.3,1.3,0.5,1.7,0.8l-0.6,5.4l-2.8-0.3l0.3-2.9     c-0.5-0.1-1.1-0.3-1.6-0.3c-0.7-0.1-1.3,0-1.9,0.1c-0.6,0.2-1.2,0.5-1.6,1c-0.5,0.5-0.9,1.1-1.2,1.8s-0.6,1.7-0.7,2.7     c-0.1,0.9-0.1,1.8,0,2.6s0.4,1.5,0.7,2.1c0.4,0.6,0.9,1.1,1.4,1.5c0.6,0.4,1.3,0.6,2.1,0.7c0.6,0.1,1.1,0.1,1.7,0L87.2,35.5z" style="fill:#6b6b6b;"/>
		</g>
		<g>
			<path d="M93.9,39.5l2.9,0.3l1.5-12.4l-2.5-0.3l-0.4,3.1l-2.8-0.3l0.7-6l14.2,1.6l-0.7,6l-2.8-0.3l0.4-3.1l-2.5-0.3     l-1.5,12.4l2.9,0.3l-0.3,2.8l-9.4-1.1L93.9,39.5z" style="fill:#6b6b6b;"/>
		</g>
		<g>
			<path d="M107.8,40.8l4.6,0.5l1.4-11.8l-4.6-0.5l0.4-3.2l12.7,1.5l-0.4,3.2l-4.6-0.5l-1.4,11.8l4.6,0.5l-0.4,3.2     L107.4,44L107.8,40.8z" style="fill:#6b6b6b;"/>
		</g>
		<g>
			<path d="M123.6,36.7c0.2-1.5,0.4-2.8,0.9-3.9c0.4-1.2,0.9-2.1,1.6-2.8c0.7-0.7,1.5-1.3,2.4-1.6     c0.9-0.3,1.9-0.4,3.1-0.3c1.2,0.1,2.3,0.5,3.1,1.1c0.8,0.6,1.4,1.3,1.9,2.2s0.7,1.9,0.9,3.1c0.1,1.2,0.1,2.5-0.1,3.8     c-0.3,2.9-1.2,5.2-2.5,6.7c-1.3,1.5-3.1,2.2-5.4,1.9c-1.2-0.1-2.3-0.5-3.1-1.1s-1.5-1.3-1.9-2.2s-0.7-1.9-0.8-3.1     C123.4,39.4,123.4,38.1,123.6,36.7z M127.3,37.1c-0.1,0.9-0.1,1.7-0.2,2.5c0,0.8,0.1,1.5,0.2,2c0.1,0.6,0.4,1.1,0.8,1.5     c0.4,0.4,0.9,0.6,1.6,0.7c0.6,0.1,1.1,0,1.5-0.2s0.8-0.6,1.1-1c0.3-0.5,0.6-1.1,0.7-1.9c0.2-0.8,0.3-1.7,0.5-2.8     c0.1-0.9,0.1-1.6,0.2-2.4c0-0.8,0-1.5-0.2-2.1c-0.1-0.6-0.4-1.1-0.8-1.5c-0.4-0.4-0.9-0.6-1.6-0.7c-1.2-0.1-2.1,0.3-2.7,1.3     C127.9,33.6,127.5,35.1,127.3,37.1z" style="fill:#6b6b6b;"/>
		</g>
		<g>
			<path d="M143.2,37.3h-0.1l-0.1,2.2l-1,8.5l-3.4-0.4l2.1-18.1l3.1,0.4l5,11.8h0.1v-2.2l1-8.9l3.4,0.4l-2.1,18.1     l-3.1-0.4L143.2,37.3z" style="fill:#6b6b6b;"/>
		</g>
		<g>
			<path d="M164.1,53.4c-1.2-0.3-2.3-0.9-3.4-1.6c-1.1-0.7-2-1.6-2.8-2.7c-0.8-1.1-1.3-2.3-1.7-3.8s-0.4-3.1-0.2-4.9     c0.2-1.8,0.7-3.4,1.3-4.7c0.7-1.3,1.5-2.4,2.5-3.3c1-0.9,2.1-1.5,3.3-2c1.2-0.5,2.4-0.7,3.7-0.8l0.3,2.8     c-0.6,0.1-1.3,0.2-2.1,0.5c-0.8,0.3-1.6,0.7-2.4,1.3c-0.8,0.6-1.5,1.5-2.1,2.5c-0.6,1-1,2.4-1.2,4.1c-0.2,1.6-0.1,2.9,0.3,4.1     c0.4,1.2,0.9,2.1,1.5,2.9c0.6,0.8,1.3,1.4,2,1.8c0.7,0.4,1.3,0.7,1.8,0.9L164.1,53.4z" style="fill:#6b6b6b;"/>
		</g>
		<g>
			<path d="M171.3,51.4c0.5,0,1.2-0.2,2-0.4c0.8-0.3,1.6-0.7,2.4-1.3c0.8-0.6,1.5-1.4,2.1-2.5c0.6-1,1-2.4,1.2-3.9     c0.2-1.6,0.1-3.1-0.2-4.2c-0.3-1.2-0.8-2.1-1.4-2.9s-1.3-1.4-2-1.8c-0.7-0.4-1.4-0.8-2-1l0.9-2.7c1.2,0.4,2.3,0.9,3.4,1.6     c1.1,0.7,2,1.6,2.8,2.7c0.7,1.1,1.3,2.4,1.7,3.8c0.4,1.5,0.4,3.1,0.2,4.9c-0.2,1.8-0.7,3.4-1.3,4.7c-0.7,1.3-1.5,2.4-2.5,3.3     c-1,0.9-2.1,1.5-3.3,1.9c-1.2,0.4-2.4,0.7-3.7,0.7L171.3,51.4z" style="fill:#6b6b6b;"/>
		</g>
	</g>
	<g>
		<g>
			<circle cx="10.5" cy="20.5" r="10.5" style="fill:#6b6b6b;"/>
		</g>
		<g>
			<circle cx="10.5" cy="20.5" r="4.4" style="fill:#FFFFFF;"/>
		</g>
	</g>
</g>

            </g>
        </g>
    </g>
    
    <!-- ITEM 13 -->
    <g>
        <defs>
            <clipPath id="clip-path-id-viewbox-item-13">
                <rect x="0.0" y="0.0" width="143.0" height="86.6"/>
            </clipPath>
        </defs>
        <g transform="translate(400.0 486.0) rotate(0.0 133.0 80.0) scale(1.8601398601398602 1.8475750577367207)">
            <g clip-path="url(#clip-path-id-viewbox-item-13)" transform="translate(-0.0 -0.0)">
                

<g>
	<g>
		<path d="M139.7,48.6l-59,36.2c-1.5,0.9-3.3,0.9-4.8,0l-59-36.2c-2.9-1.8-2.9-6,0-7.8l59-36.2c1.5-0.9,3.3-0.9,4.8,0    l59,36.2C142.6,42.5,142.6,46.8,139.7,48.6z" style="fill:#6D6D6D;"/>
		<path d="M78.3,86.6c-1,0-2.1-0.3-3-0.9l-59-36.2c-1.7-1-2.7-2.9-2.7-4.9s1-3.8,2.7-4.9l59-36.2c1.8-1.1,4.1-1.1,6,0    l59,36.2c1.7,1,2.7,2.9,2.7,4.9s-1,3.8-2.7,4.9l-59,36.2C80.4,86.4,79.3,86.6,78.3,86.6z M78.3,5c-0.6,0-1.3,0.2-1.8,0.5l-59,36.2    c-1,0.6-1.6,1.8-1.6,2.9c0,1.2,0.6,2.3,1.6,2.9l59,36.2c1.1,0.7,2.5,0.7,3.7,0l59-36.2c1-0.6,1.6-1.8,1.6-2.9    c0-1.2-0.6-2.3-1.6-2.9l-59-36.2C79.5,5.1,78.9,5,78.3,5z M139.7,48.6L139.7,48.6L139.7,48.6z" style="fill:#6b6b6b;"/>
	</g>
	<g>
		<path d="M139.7,45.9l-59,36.2c-1.5,0.9-3.3,0.9-4.8,0l-59-36.2c-2.9-1.8-2.9-6,0-7.8l59-36.2c1.5-0.9,3.3-0.9,4.8,0    l59,36.2C142.6,39.8,142.6,44.1,139.7,45.9z" style="fill:#FFFFFF;"/>
		<path d="M78.3,83.9c-1,0-2.1-0.3-3-0.9l-59-36.2c-1.7-1-2.7-2.9-2.7-4.9s1-3.8,2.7-4.9l59-36.2c1.8-1.1,4.1-1.1,6,0    l59,36.2c1.7,1,2.7,2.9,2.7,4.9s-1,3.8-2.7,4.9L81.3,83C80.4,83.6,79.3,83.9,78.3,83.9z M78.3,2.2c-0.6,0-1.3,0.2-1.8,0.5    l-59,36.2c-1,0.6-1.6,1.8-1.6,2.9c0,1.2,0.6,2.3,1.6,2.9l59,36.2c1.1,0.7,2.5,0.7,3.7,0l59-36.2c1-0.6,1.6-1.8,1.6-2.9    c0-1.2-0.6-2.3-1.6-2.9l-59-36.2C79.5,2.4,78.9,2.2,78.3,2.2z M139.7,45.9L139.7,45.9L139.7,45.9z" style="fill:#6b6b6b;"/>
	</g>
	<g>
		<path d="M61.6,46.3h0.1l3.9-14.6h4l-6,19.9h-4.4l-6.1-19.9h4.3L61.6,46.3z" style="fill:#6b6b6b;"/>
		<path d="M81.3,47.2h-5.9L74,51.6h-3.9l6.4-19.9h3.9l6.4,19.9h-4.1L81.3,47.2z M76.2,44.1h4.3l-2-6.6h-0.3L76.2,44.1z" style="fill:#6b6b6b;"/>
		<path d="M88.7,31.9c0.4-0.1,0.9-0.1,1.4-0.2s1-0.1,1.5-0.1s1-0.1,1.5-0.1s0.9,0,1.3,0c0.9,0,1.8,0.1,2.7,0.3    c0.9,0.2,1.7,0.5,2.4,0.9c0.7,0.4,1.3,1,1.7,1.8c0.4,0.7,0.6,1.6,0.6,2.8c0,0.8-0.1,1.5-0.2,2.1s-0.4,1.1-0.7,1.6    c-0.3,0.4-0.6,0.9-1,1.2c-0.4,0.3-0.9,0.6-1.3,0.9l4.8,8.7h-4.5l-4-7.8h-2.2v7.8h-3.9L88.7,31.9L88.7,31.9z M94.7,34.9    c-0.4,0-0.8,0-1.2,0c-0.4,0-0.7,0.1-0.9,0.1v5.7h1.5c1.1,0,1.9-0.3,2.7-0.7c0.7-0.5,1-1.3,1-2.4c0-0.9-0.3-1.5-0.8-2    C96.5,35.2,95.7,34.9,94.7,34.9z" style="fill:#6b6b6b;"/>
	</g>
	<g>
		<g>
			<circle cx="10.5" cy="41.9" r="10.5" style="fill:#6b6b6b;"/>
		</g>
		<g>
			<ellipse cx="10.4" cy="41.9" rx="4.4" ry="4.4" style="fill:#FFFFFF;"/>
		</g>
	</g>
</g>

            </g>
        </g>
    </g>
    
    <!-- ITEM 14 -->
    <g>
        <defs>
            <clipPath id="clip-path-id-viewbox-item-14">
                <rect x="0.0" y="0.0" width="131.461" height="101.352"/>
            </clipPath>
        </defs>
        <g transform="translate(240.0 152.0) rotate(0.0 121.5 93.5) scale(1.8484569568160898 1.8450548583155735)">
            <g clip-path="url(#clip-path-id-viewbox-item-14)" transform="translate(-0.0 -0.0)">
                <title>bird</title><g id="Layer_2-i15" data-name="Layer 2"><g id="bird-i15"><path d="M63.9,67.136v-.3a2.617,2.617,0,1,0-5.2.6h0v2.6a13.329,13.329,0,0,1-.3,2.8,18.674,18.674,0,0,1-1.8,5.5,12.75,12.75,0,0,1-1.5,2.5l-.9,1.2-.9,1.2a28.515,28.515,0,0,1-4.4,4.1,7.234,7.234,0,0,0-2.1.1,4.508,4.508,0,0,0-1.1.3c-.2.1-.4.1-.6.2a3.287,3.287,0,0,0-.6.3,2.651,2.651,0,0,0-.6.5,1.552,1.552,0,0,0,.3,2.1l1,.7c.1,0,.2.1.4.1l.4.1.8.2c.5.1,1,.3,1.4.4a4.849,4.849,0,0,1,2,1.2,6.4,6.4,0,0,1,1.4,2c.4.9.8,2,1.2,3.2v.1a1.427,1.427,0,0,0,2.7.1,8.038,8.038,0,0,0,.6-4.4,11.627,11.627,0,0,0-.4-1.8,4.349,4.349,0,0,1,.7.6,3.6,3.6,0,0,1,.8,1.2,13.78,13.78,0,0,1,.6,1.6,34.236,34.236,0,0,1,.9,4v.1a1.589,1.589,0,0,0,.8,1,1.471,1.471,0,0,0,1.9-.7,10.575,10.575,0,0,0,.9-5.1,9.37,9.37,0,0,0-.6-2.8,10.679,10.679,0,0,0-1.6-2.7,7.558,7.558,0,0,0-2.5-1.9,15.175,15.175,0,0,0-2.8-.9c-.4,0-.9-.1-1.3-.1a7.965,7.965,0,0,0,1.7-1.5l1.2-1.2c.4-.4.7-.8,1.1-1.2.7-.9,1.4-1.8,2-2.7a27.032,27.032,0,0,0,2.9-6.2,33.834,33.834,0,0,0,.8-3.4,11.019,11.019,0,0,0,.2-1.8v-1.4Z" fill="#6b6b6b"/><path d="M79.5,9.236a8,8,0,0,0-2-3.6c-1.1-.9-2.8-1.2-3.8-.1a4.2,4.2,0,0,0-.9,1.9,30.055,30.055,0,0,0-.9,8.4,6.762,6.762,0,0,0-2.6-3.6,4.164,4.164,0,0,0-4.3-.2,4.416,4.416,0,0,0-1.9,3.7,12.6,12.6,0,0,0,.8,4.3c1.5,4.6,3.7,9.3,7.9,11.5,1.8.9,6.1,2.6,8.1,1.9,2.1-.7,1.8-3.8,1.9-5.6A46.748,46.748,0,0,0,79.5,9.236Z" fill="#fff"/><path d="M35.6,57.536l-3.3-15.8a1.555,1.555,0,0,0-.6-.8,1.7,1.7,0,0,0-1,0c-.1,0-7.6,4.3-15,9.3C1.9,59.336.1,62.736,0,64.436a2.512,2.512,0,0,0,1,2.1,7.782,7.782,0,0,0,4.6,1.4c4,0,8.3-2.3,10.2-3.5a3.49,3.49,0,0,0,.9.6c1.4.7,3.3.6,5.7-.4,1.5.9,5.9,2.8,12.7-1.2a1.326,1.326,0,0,0,.6-1v-4.7C35.6,57.736,35.6,57.636,35.6,57.536Z" fill="#6b6b6b"/><ellipse cx="58" cy="48.136" rx="27" ry="29.5" fill="#dae3ff"/><path d="M80.3,31.636a31.141,31.141,0,0,1,1.6,10.2c0,16.3-12.1,29.5-27,29.5-9.3,0-17.5-5.2-22.3-13,3.8,11.3,13.7,19.3,25.3,19.3,14.9,0,27-13.2,27-29.5A31.434,31.434,0,0,0,80.3,31.636Z" fill="#fff"/><path d="M61.3,24.236c-7.5-17.8-12-24.9-16.7-23.1-4.4,1.6-4.1,11.5,2.4,30,0,0-9.2-17.1-12.6-14.1-2.4,2.1,2.2,10.9,5,15.7-2.1-3-5.3-6.8-7.7-4.9-3.7,3,9.7,25.4,14.4,28.6s13.3,1.5,18.7-4.6S66.4,36.336,61.3,24.236Z" fill="#dae3ff"/><path d="M67.3,46.936c1-5.8-2.1-13.5-6-22.6-7.5-17.8-12-24.9-16.7-23.1-2.2.8-3.2,3.6-2.9,8.4,0,0,10.8,3.1,14.7,19.2C60.3,44.836,67.2,46.936,67.3,46.936Z" fill="#fff"/><path d="M82.2,32.836a1.087,1.087,0,0,0,.7-1c0-.1,0-6.6-.7-13.2-1.1-9.6-3.1-14.2-6.3-14.5a3.708,3.708,0,0,0-3.2,1.2c-1.6,1.7-1.8,4.9-1.7,7.6-1.5-1.5-3.5-2.8-5.5-1.8-2.5,1.2-2.8,5.3-2.8,7.1-1-.2-2.1-.3-3.1-.4-5.9-13.2-10.3-19.4-15.4-17.5-4.5,1.7-4.9,9.2-1.1,22.5-2.4-3.4-5.1-6.6-7.3-7a2.863,2.863,0,0,0-2.2.6c-.7.6-2.5,2.3,1.3,10.4a5.638,5.638,0,0,0-1.2-.4,3.7,3.7,0,0,0-2.7.7,3.343,3.343,0,0,0-1,2.9,23.175,23.175,0,0,0,1.9,6.7,33.531,33.531,0,0,0-2.1,11.5c0,16.9,12.6,30.6,28.1,30.6S86,65.136,86,48.236A31.381,31.381,0,0,0,82.2,32.836Zm-15.7-19.9c1.6-.8,4.1,2.6,5.1,4.3a1.027,1.027,0,0,0,1.3.5,1.086,1.086,0,0,0,.7-1.2c-.5-2.9-.8-8.2.7-9.9a1.19,1.19,0,0,1,1.3-.4c3,.3,4.9,12.5,5,24.1a28.233,28.233,0,0,0-15.8-11.8C64.9,16.536,65.3,13.536,66.5,12.936Zm-34,15.8a.908.908,0,0,1,.7-.3h.2c1.3.2,3.1,1.9,5.1,4.9a1.1,1.1,0,0,0,1.5.3,1.129,1.129,0,0,0,.4-1.5c-5.8-9.8-6-13.6-5.3-14.3a.438.438,0,0,1,.3-.1c2.4.4,7.6,8.3,10.6,13.8a1.24,1.24,0,0,0,1.5.5,1.158,1.158,0,0,0,.6-1.4c-8.5-24.4-4.5-28-3.1-28.6,4.1-1.5,8.9,7.5,15.3,22.5,4.7,11.1,8.8,20.8,3.8,26.4-4.7,5.4-12.8,7.5-17.2,4.4-3.8-2.6-14.4-19.6-14.6-25.7A1.1,1.1,0,0,1,32.5,28.736ZM58,76.536c-14.3,0-25.9-12.7-25.9-28.4a29.105,29.105,0,0,1,1.2-8.5c3.7,7.4,9.4,15.9,12.3,17.8a11.322,11.322,0,0,0,6.3,1.8,19.239,19.239,0,0,0,13.8-6.6c5.9-6.8,1.6-17-3.4-28.8-.6-1.3-1.1-2.7-1.7-3.9,13,1.5,23.1,13.6,23.1,28.2C83.8,63.836,72.2,76.536,58,76.536Z" fill="#6b6b6b"/><path d="M46,66.336a2.608,2.608,0,1,0-5.2.4v.6a1.952,1.952,0,0,1-.1.7,7.844,7.844,0,0,1-.2,1.4,27.971,27.971,0,0,1-.6,2.8,33.911,33.911,0,0,1-2,5.3,30.256,30.256,0,0,1-3.1,4.8,24.674,24.674,0,0,1-2.8,2.8c-.2,0-.4.1-.7.1a6.373,6.373,0,0,1-.7.2l-.3.1-.4.1h0c-.4-.1-.7-.2-1.1-.3a16.352,16.352,0,0,0-2.2-.2,4.1,4.1,0,0,0-1.1.1,1.268,1.268,0,0,0-.6.1l-.6.1a1.8,1.8,0,0,0-.9.6,1.621,1.621,0,0,0,.3,2.3l.6.5c.1.1.2.1.4.2l.4.1.8.3,1.5.6a11.711,11.711,0,0,1,2.5,1.4c.3.3.6.5.9.8a5.5,5.5,0,0,1,.7.9,15.542,15.542,0,0,1,1.2,2.8v.1a1.419,1.419,0,0,0,.8.9,1.528,1.528,0,0,0,2-.7,6.755,6.755,0,0,0,.5-4.7,4.714,4.714,0,0,0-.6-1.5l.6.3a10.627,10.627,0,0,1,1.1.9,3.6,3.6,0,0,1,.8,1.2c.2.5.4,1,.6,1.6a38.687,38.687,0,0,1,.7,4.3v.1a1.507,1.507,0,0,0,2.8.5,6.117,6.117,0,0,0,.5-1.2c.1-.4.3-.9.4-1.3s.2-.9.3-1.3a1.7,1.7,0,0,1,.1-.7v-.7a10.323,10.323,0,0,0-.4-3,8.267,8.267,0,0,0-1.6-2.9,7.9,7.9,0,0,0-2.7-2.1,11.275,11.275,0,0,0-2.4-.8,2.336,2.336,0,0,0,.7-.7,25.326,25.326,0,0,0,4.2-5,31.869,31.869,0,0,0,3-5.8c.4-1,.8-2.1,1.1-3.1.1-.5.3-1,.4-1.6.1-.3.1-.6.2-.8l.1-.4a1.087,1.087,0,0,1,.1-.5v-.7Z" fill="#6b6b6b"/><circle cx="90.8" cy="43.736" r="15" fill="#fff"/><circle cx="90.8" cy="43.736" r="9.8" fill="#fff"/><path d="M90.8,54.636a10.422,10.422,0,0,1-6.5-2.2h0a10.86,10.86,0,0,1,13-17.4,11.509,11.509,0,0,1,4.3,7.2,10.772,10.772,0,0,1-2.1,8.1,11.509,11.509,0,0,1-7.2,4.3Zm-5.1-4a8.635,8.635,0,0,0,6.4,1.6,8.345,8.345,0,0,0,5.7-3.4,8.635,8.635,0,0,0,1.6-6.4,8.345,8.345,0,0,0-3.4-5.7,8.65,8.65,0,0,0-10.3,13.9Z" fill="#6b6b6b"/><circle cx="90.8" cy="43.736" r="6.5" fill="#6b6b6b"/><circle cx="92.6" cy="47.236" r="3.5" fill="#fff"/><path d="M130.2,52.636c-14.4,1.4-21.1-1.8-24-4.1a16.1,16.1,0,0,0-1-11.9c.3-.4.5-.8.9-1.4a45.262,45.262,0,0,0,2.7-5.4c2.2-5.1,5.2-14,.7-16.5a4.747,4.747,0,0,0-4.4-.4c-1.8.9-2.7,3.1-3.2,4.6a6.156,6.156,0,0,0-3.4-.9,5.278,5.278,0,0,0-3.8,2.1c-1.6,2-1.2,5.2-.4,7.5a14.58,14.58,0,0,0,.7,1.9,18.406,18.406,0,0,0-4.1-.5,16.1,16.1,0,0,0,0,32.2,15.851,15.851,0,0,0,10.7-4.1,27.521,27.521,0,0,0,18.8,8.7h.7a1.092,1.092,0,0,0,.3-2.1,41.345,41.345,0,0,1-8.8-4.6,50.314,50.314,0,0,0,17.8-2.8l.6-.3A1.114,1.114,0,0,0,130.2,52.636Zm-25.8-6h0a9.2,9.2,0,0,0-4.6,7.7,13.871,13.871,0,1,1-9-24.4,14.587,14.587,0,0,1,5.5,1.1c1.8,3.2,4.4,6,6.9,6.8h.1a14.54,14.54,0,0,1,1.3,5.9A9.467,9.467,0,0,1,104.4,46.636Z" fill="#6D6D6D"/></g></g>
            </g>
        </g>
    </g>
    
    <!-- ITEM 15 -->
    <g>
        <defs>
            <clipPath id="clip-path-id-viewbox-item-15">
                <rect x="0.0" y="0.0" width="144.1" height="55.0"/>
            </clipPath>
        </defs>
        <g transform="translate(607.0 867.0) rotate(0.0 134.0 51.0) scale(1.859819569743234 1.8545454545454545)">
            <g clip-path="url(#clip-path-id-viewbox-item-15)" transform="translate(-0.0 -0.0)">
                

<g>
	<g>
		<g>
			<path d="M144.1,26c0-14.4-11.7-26-26-26H36.8c-14.4,0-26,11.7-26,26c0,0.5,0,1,0,1.5s0,1,0,1.5c0,14.4,11.7,26,26,26     h81.3c14.4,0,26-11.7,26-26c0-0.5,0-1,0-1.5C144.1,26.9,144.1,26.5,144.1,26z" style="fill:#6b6b6b;"/>
			<path d="M118.1,2.2H36.8C23.7,2.2,13,12.9,13,26c0,13.1,10.7,23.8,23.8,23.8h81.3c13.1,0,23.8-10.7,23.8-23.8     C141.9,12.8,131.2,2.2,118.1,2.2z" style="fill:#FFFFFF;"/>
		</g>
		<g>
			<path d="M39.8,27.1l0.1,2.4H40l0.5-2.2l1.7-5.3h2.9l1.6,5.3l0.5,2.2h0.1l0.1-2.4l0.8-11h3.6L49.7,36h-3.3l-2.1-6.3     L43.7,27h-0.1l-0.7,2.7L40.6,36h-3.4l-2.1-19.9H39L39.8,27.1z" style="fill:#6b6b6b;"/>
			<path d="M63.6,27.6h-6.4v8.3h-3.9V16h3.9v8.1h6.4V16h3.9v19.9h-3.9V27.6z" style="fill:#6b6b6b;"/>
			<path d="M70.4,32.5h5v-13h-5V16h14v3.5h-5v13h5V36h-14V32.5z" style="fill:#6b6b6b;"/>
			<path d="M97.7,27.8h3.5v8.1H88.1V16H92v16.4h5.6L97.7,27.8L97.7,27.8z" style="fill:#6b6b6b;"/>
			<path d="M105,16h13v3.5h-9.1v4.6h8.4v3.5h-8.4v4.9h9.3V36H105L105,16L105,16z" style="fill:#6b6b6b;"/>
		</g>
	</g>
	<g>
		<g>
			<circle cx="11.4" cy="26" r="11.4" style="fill:#6b6b6b;"/>
		</g>
		<g>
			<circle cx="11.4" cy="26" r="4.8" style="fill:#FFFFFF;"/>
		</g>
	</g>
</g>

            </g>
        </g>
    </g>
    
    <!-- ITEM 16 -->
    <g>
        <defs>
            <clipPath id="clip-path-id-viewbox-item-16">
                <rect x="0.0" y="0.0" width="27.5" height="22.3"/>
            </clipPath>
        </defs>
        <g transform="translate(456.0 395.0) rotate(0.0 25.0 20.0) scale(1.86D6D6D6D6D6D181 1.7937219730941703)">
            <g clip-path="url(#clip-path-id-viewbox-item-16)" transform="translate(-0.0 -0.0)">
                

<g>
	<path d="M3.8,22.3c-0.9,0-1.9,0-2.8-0.1c-0.6-0.1-1-0.6-1-1.2c0.1-0.6,0.6-1,1.2-1c6.5,0.7,13-1.4,17.7-6   c3.5-3.5,5.8-8.1,6.4-13c0.1-0.6,0.6-1,1.2-1c0.6,0.1,1,0.6,1,1.2c-0.6,5.5-3.1,10.6-7.1,14.4C16,19.9,10,22.3,3.8,22.3z" style="fill:#6b6b6b;"/>
</g>

            </g>
        </g>
    </g>
    
    <!-- ITEM 17 -->
    <g>
        <defs>
            <clipPath id="clip-path-id-viewbox-item-17">
                <rect x="0.0" y="0.0" width="17.0" height="13.1"/>
            </clipPath>
        </defs>
        <g transform="translate(316.0 134.0) rotate(0.0 15.5 11.5) scale(1.8235294117647058 1.7557251908396947)">
            <g clip-path="url(#clip-path-id-viewbox-item-17)" transform="translate(-0.0 -0.0)">
                

<g>
	<path d="M15.9,13.1c-0.4,0-0.8-0.2-1-0.6C11.4,5.3,8,3,5.7,2.4c-2.4-0.7-3.9,0.3-4,0.4C1.2,3.1,0.5,3,0.2,2.5   S0,1.3,0.5,1c0.1-0.1,2.4-1.6,5.7-0.7c3.9,1,7.5,4.9,10.7,11.3c0.3,0.6,0,1.2-0.5,1.5C16.3,13.1,16.1,13.1,15.9,13.1z" style="fill:#6b6b6b;"/>
</g>

            </g>
        </g>
    </g>
    
    <!-- ITEM 18 -->
    <g>
        <defs>
            <clipPath id="clip-path-id-viewbox-item-18">
                <rect x="0.0" y="0.0" width="17.2" height="15.8"/>
            </clipPath>
        </defs>
        <g transform="translate(256.0 852.0) rotate(0.0 16.5 14.5) scale(1.9186046511627908 1.8354430379746836)">
            <g clip-path="url(#clip-path-id-viewbox-item-18)" transform="translate(-0.0 -0.0)">
                

<g>
	<path d="M16.1,15.8c-0.5,0-0.9-0.3-1.1-0.8C11.2,0.6,1.4,2.3,1.3,2.3C0.7,2.4,0.1,2,0,1.4s0.3-1.2,0.9-1.3   c0.1,0,12-2.2,16.3,14.3c0.1,0.6-0.2,1.2-0.8,1.4C16.2,15.8,16.2,15.8,16.1,15.8z" style="fill:#6b6b6b;"/>
</g>

            </g>
        </g>
    </g>
    
</svg>